<svg xmlns="http://www.w3.org/2000/svg" viewBox="0 0 1920 1080"><defs><style>.cls-1{fill:#fff;}.cls-2{fill:#1cd16e;}</style></defs><title>BuildingsFar</title><g id="Layer_2" data-name="Layer 2"><rect class="cls-1" x="1731" y="744" width="153" height="315"/><rect class="cls-1" x="1753" y="722" width="110" height="23"/><rect class="cls-1" x="1568" y="840" width="150" height="217"/><rect class="cls-1" x="1433" y="608" width="122" height="449"/><rect class="cls-1" x="1346" y="876" width="46" height="181"/><rect class="cls-1" x="1278" y="875" width="48" height="182"/><rect class="cls-1" x="1160" y="828" width="44" height="26"/><rect class="cls-1" x="1149" y="855" width="66" height="6"/><rect class="cls-1" x="1175" y="803" width="15" height="26"/><rect class="cls-1" x="1183" y="775" width="21" height="12"/><rect class="cls-1" x="1175" y="799" width="15" height="4"/><path class="cls-1" d="M1174.5,802.5a7.7,7.7,0,0,1,8-7.7c8-.3,7.54,7.7,7.54,7.7h-15.5"/><rect class="cls-1" x="1156" y="861" width="52" height="37"/><rect class="cls-1" x="1145" y="898" width="74" height="6"/><rect class="cls-1" x="1156" y="903" width="52" height="103"/><rect class="cls-1" x="1126" y="1006" width="111" height="52"/><rect class="cls-1" x="944" y="751" width="171" height="306"/><rect class="cls-1" x="785" y="920" width="147" height="137"/><rect class="cls-1" x="781" y="974" width="156" height="6"/><rect class="cls-1" x="781" y="920" width="156" height="5"/><rect class="cls-1" x="784" y="895" width="150" height="5"/><rect class="cls-1" x="792" y="900" width="134" height="20"/><path class="cls-1" d="M871.75,895.17l-9-16.1a8,8,0,1,0-8.12-.37l-8.8,16.47Z"/><rect class="cls-1" x="785" y="895" width="149" height="5"/><rect class="cls-1" x="623" y="839" width="153" height="220"/><rect class="cls-1" x="424" y="606" width="188" height="453"/><rect class="cls-1" x="337" y="803" width="48" height="182"/><rect class="cls-1" x="143" y="986" width="271" height="73"/><rect class="cls-1" x="38" y="706" width="95" height="353"/><polyline class="cls-1" points="341 859.2 255 886 196 903 177 905 177 985 319.25 985 337 985 341 859.2"/></g><g id="Layer_1" data-name="Layer 1"><path class="cls-2" d="M1882.26,745.79v311.47H1732.61V745.79h149.65m1.74-1.74H1730.87v315H1884v-315Z"/><path class="cls-2" d="M1867.18,762.61h-21.51a1.45,1.45,0,0,1,0-2.9h21.51a1.45,1.45,0,1,1,0,2.9Z"/><path class="cls-2" d="M1834.91,762.61h-21.52a1.45,1.45,0,0,1,0-2.9h21.52a1.45,1.45,0,0,1,0,2.9Z"/><path class="cls-2" d="M1802.64,762.61h-21.52a1.45,1.45,0,1,1,0-2.9h21.52a1.45,1.45,0,0,1,0,2.9Z"/><path class="cls-2" d="M1770.37,762.61h-21.52a1.45,1.45,0,1,1,0-2.9h21.52a1.45,1.45,0,1,1,0,2.9Z"/><path class="cls-2" d="M1862,723.17v20.88H1753.49V723.17H1862m1.74-1.74h-112v24.36h112V721.43Z"/><path class="cls-2" d="M1717.53,840.33v216.93H1567.89V840.33h149.64m1.74-1.74H1566.15V1059h153.12V838.59Z"/><path class="cls-2" d="M1702.45,855.41h-37.12a1.45,1.45,0,1,1,0-2.9h37.12a1.45,1.45,0,0,1,0,2.9Z"/><path class="cls-2" d="M1656.47,855.41h-10.86a1.45,1.45,0,1,1,0-2.9h10.86a1.45,1.45,0,0,1,0,2.9Z"/><path class="cls-2" d="M1636.62,855.41h-36.54a1.45,1.45,0,1,1,0-2.9h36.54a1.45,1.45,0,0,1,0,2.9Z"/><path class="cls-2" d="M1591.67,855.41h-9.86a1.45,1.45,0,0,1,0-2.9h9.86a1.45,1.45,0,0,1,0,2.9Z"/><path class="cls-2" d="M1618.64,869.91H1582.1a1.45,1.45,0,1,1,0-2.9h36.54a1.45,1.45,0,0,1,0,2.9Z"/><path class="cls-2" d="M1628.21,869.91h-.87a1.45,1.45,0,1,1,0-2.9h.87a1.45,1.45,0,0,1,0,2.9Z"/><path class="cls-2" d="M1645,869.91h-8.41a1.45,1.45,0,1,1,0-2.9H1645a1.45,1.45,0,0,1,0,2.9Z"/><path class="cls-2" d="M1702.45,869.91h-49a1.45,1.45,0,0,1,0-2.9h49a1.45,1.45,0,0,1,0,2.9Z"/><path class="cls-2" d="M1618.93,898.91h-37.12a1.45,1.45,0,0,1,0-2.9h37.12a1.45,1.45,0,0,1,0,2.9Z"/><path class="cls-2" d="M1638.65,898.91h-10.86a1.45,1.45,0,0,1,0-2.9h10.86a1.45,1.45,0,0,1,0,2.9Z"/><path class="cls-2" d="M1684.18,898.91h-36.54a1.45,1.45,0,0,1,0-2.9h36.54a1.45,1.45,0,0,1,0,2.9Z"/><path class="cls-2" d="M1702.45,898.91h-9.86a1.45,1.45,0,1,1,0-2.9h9.86a1.45,1.45,0,0,1,0,2.9Z"/><path class="cls-2" d="M1702.16,884.41h-36.54a1.45,1.45,0,1,1,0-2.9h36.54a1.45,1.45,0,0,1,0,2.9Z"/><path class="cls-2" d="M1656.92,884.41h-.87a1.45,1.45,0,0,1,0-2.9h.87a1.45,1.45,0,0,1,0,2.9Z"/><path class="cls-2" d="M1647.64,884.41h-8.41a1.45,1.45,0,0,1,0-2.9h8.41a1.45,1.45,0,0,1,0,2.9Z"/><path class="cls-2" d="M1630.82,884.41h-49a1.45,1.45,0,0,1,0-2.9h49a1.45,1.45,0,0,1,0,2.9Z"/><path class="cls-2" d="M1619.51,956.34h-37.12a1.45,1.45,0,1,1,0-2.9h37.12a1.45,1.45,0,1,1,0,2.9Z"/><path class="cls-2" d="M1639.23,956.34h-10.86a1.45,1.45,0,1,1,0-2.9h10.86a1.45,1.45,0,1,1,0,2.9Z"/><path class="cls-2" d="M1684.76,956.34h-36.54a1.45,1.45,0,1,1,0-2.9h36.54a1.45,1.45,0,1,1,0,2.9Z"/><path class="cls-2" d="M1703,956.34h-9.86a1.45,1.45,0,1,1,0-2.9H1703a1.45,1.45,0,1,1,0,2.9Z"/><path class="cls-2" d="M1702.74,941.83H1666.2a1.45,1.45,0,1,1,0-2.9h36.54a1.45,1.45,0,0,1,0,2.9Z"/><path class="cls-2" d="M1657.5,941.83h-.87a1.45,1.45,0,0,1,0-2.9h.87a1.45,1.45,0,0,1,0,2.9Z"/><path class="cls-2" d="M1648.22,941.83h-8.41a1.45,1.45,0,0,1,0-2.9h8.41a1.45,1.45,0,1,1,0,2.9Z"/><path class="cls-2" d="M1631.4,941.83h-49a1.45,1.45,0,1,1,0-2.9h49a1.45,1.45,0,0,1,0,2.9Z"/><path class="cls-2" d="M1703,912.83h-37.12a1.45,1.45,0,1,1,0-2.9H1703a1.45,1.45,0,0,1,0,2.9Z"/><path class="cls-2" d="M1657.05,912.83h-10.86a1.45,1.45,0,0,1,0-2.9h10.86a1.45,1.45,0,1,1,0,2.9Z"/><path class="cls-2" d="M1637.2,912.83h-36.54a1.45,1.45,0,1,1,0-2.9h36.54a1.45,1.45,0,0,1,0,2.9Z"/><path class="cls-2" d="M1592.25,912.83h-9.86a1.45,1.45,0,1,1,0-2.9h9.86a1.45,1.45,0,0,1,0,2.9Z"/><path class="cls-2" d="M1619.22,927.33h-36.54a1.45,1.45,0,1,1,0-2.9h36.54a1.45,1.45,0,1,1,0,2.9Z"/><path class="cls-2" d="M1628.79,927.33h-.87a1.45,1.45,0,0,1,0-2.9h.87a1.45,1.45,0,0,1,0,2.9Z"/><path class="cls-2" d="M1645.61,927.33h-8.41a1.45,1.45,0,1,1,0-2.9h8.41a1.45,1.45,0,0,1,0,2.9Z"/><path class="cls-2" d="M1703,927.33h-49a1.45,1.45,0,0,1,0-2.9h49a1.45,1.45,0,0,1,0,2.9Z"/><path class="cls-2" d="M1702.45,967.94h-37.12a1.45,1.45,0,1,1,0-2.9h37.12a1.45,1.45,0,0,1,0,2.9Z"/><path class="cls-2" d="M1656.47,967.94h-10.86a1.45,1.45,0,1,1,0-2.9h10.86a1.45,1.45,0,0,1,0,2.9Z"/><path class="cls-2" d="M1636.62,967.94h-36.54a1.45,1.45,0,1,1,0-2.9h36.54a1.45,1.45,0,0,1,0,2.9Z"/><path class="cls-2" d="M1591.67,967.94h-9.86a1.45,1.45,0,0,1,0-2.9h9.86a1.45,1.45,0,0,1,0,2.9Z"/><path class="cls-2" d="M1618.64,982.44H1582.1a1.45,1.45,0,1,1,0-2.9h36.54a1.45,1.45,0,0,1,0,2.9Z"/><path class="cls-2" d="M1628.21,982.44h-.87a1.45,1.45,0,1,1,0-2.9h.87a1.45,1.45,0,0,1,0,2.9Z"/><path class="cls-2" d="M1645,982.44h-8.41a1.45,1.45,0,1,1,0-2.9H1645a1.45,1.45,0,0,1,0,2.9Z"/><path class="cls-2" d="M1702.45,982.44h-49a1.45,1.45,0,0,1,0-2.9h49a1.45,1.45,0,0,1,0,2.9Z"/><path class="cls-2" d="M1618.93,1011.44h-37.12a1.45,1.45,0,0,1,0-2.9h37.12a1.45,1.45,0,0,1,0,2.9Z"/><path class="cls-2" d="M1638.65,1011.44h-10.86a1.45,1.45,0,0,1,0-2.9h10.86a1.45,1.45,0,0,1,0,2.9Z"/><path class="cls-2" d="M1684.18,1011.44h-36.54a1.45,1.45,0,0,1,0-2.9h36.54a1.45,1.45,0,0,1,0,2.9Z"/><path class="cls-2" d="M1702.45,1011.44h-9.86a1.45,1.45,0,1,1,0-2.9h9.86a1.45,1.45,0,0,1,0,2.9Z"/><path class="cls-2" d="M1702.16,996.94h-36.54a1.45,1.45,0,1,1,0-2.9h36.54a1.45,1.45,0,0,1,0,2.9Z"/><path class="cls-2" d="M1656.92,996.94h-.87a1.45,1.45,0,0,1,0-2.9h.87a1.45,1.45,0,0,1,0,2.9Z"/><path class="cls-2" d="M1647.64,996.94h-8.41a1.45,1.45,0,0,1,0-2.9h8.41a1.45,1.45,0,0,1,0,2.9Z"/><path class="cls-2" d="M1630.82,996.94h-49a1.45,1.45,0,0,1,0-2.9h49a1.45,1.45,0,0,1,0,2.9Z"/><path class="cls-2" d="M1703,1025.36h-37.12a1.45,1.45,0,0,1,0-2.9H1703a1.45,1.45,0,1,1,0,2.9Z"/><path class="cls-2" d="M1657.05,1025.36h-10.86a1.45,1.45,0,0,1,0-2.9h10.86a1.45,1.45,0,1,1,0,2.9Z"/><path class="cls-2" d="M1637.2,1025.36h-36.54a1.45,1.45,0,0,1,0-2.9h36.54a1.45,1.45,0,1,1,0,2.9Z"/><path class="cls-2" d="M1592.25,1025.36h-9.86a1.45,1.45,0,0,1,0-2.9h9.86a1.45,1.45,0,1,1,0,2.9Z"/><path class="cls-2" d="M1554.55,607.74v448.94H1433.32V607.74h121.23m1.74-1.74H1431.58v452.42h124.71V606Z"/><rect class="cls-1" x="1126.2" y="1005.93" width="111.36" height="52.2"/><path class="cls-2" d="M1238.43,1059h-113.1v-53.94h113.1Zm-111.36-1.74h109.62V1006.8H1127.07Z"/><rect class="cls-1" x="1155.78" y="903.84" width="52.2" height="102.08"/><path class="cls-2" d="M1208.85,1006.8h-53.94V903h53.94Zm-52.2-1.74h50.46V904.71h-50.46Z"/><rect class="cls-1" x="1144.76" y="898.04" width="74.24" height="5.8"/><path class="cls-2" d="M1219.87,904.71h-76v-7.54h76ZM1145.63,903h72.5v-4.06h-72.5Z"/><rect class="cls-1" x="1155.78" y="860.92" width="52.2" height="37.12"/><path class="cls-2" d="M1208.85,898.91h-53.94V860.05h53.94Zm-52.2-1.74h50.46V861.79h-50.46Z"/><rect class="cls-1" x="1148.82" y="855.12" width="66.12" height="5.8"/><path class="cls-2" d="M1215.81,861.79H1148v-7.54h67.86Zm-66.12-1.74h64.38V856h-64.38Z"/><rect class="cls-1" x="1161" y="828.44" width="42.34" height="26.68"/><path class="cls-2" d="M1204.21,856h-44.08V827.57h44.08Zm-42.34-1.74h40.6V829.31h-40.6Z"/><rect class="cls-1" x="1175.5" y="802.92" width="13.92" height="25.52"/><path class="cls-2" d="M1190.29,829.31h-15.66V802.05h15.66Zm-13.92-1.74h12.18V803.79h-12.18Z"/><path class="cls-1" d="M1190.29,802.92a8,8,0,0,0-15.94,0Z"/><path class="cls-2" d="M1191.17,803.79h-17.71l0-.88a8.84,8.84,0,0,1,17.68,0Zm-15.89-1.74h14.07a7.1,7.1,0,0,0-14.07,0Z"/><rect class="cls-2" x="1181.59" y="771.89" width="1.74" height="22.91"/><circle class="cls-1" cx="1181.59" cy="879.77" r="12.47"/><path class="cls-2" d="M1181.59,893.11a13.34,13.34,0,1,1,13.34-13.34A13.35,13.35,0,0,1,1181.59,893.11Zm0-24.94a11.6,11.6,0,1,0,11.6,11.6A11.61,11.61,0,0,0,1181.59,868.17Z"/><polyline class="cls-1" points="1191.16 879.48 1181.3 879.48 1181.3 889.34"/><polygon class="cls-2" points="1182.17 889.34 1180.43 889.34 1180.43 878.61 1191.16 878.61 1191.16 880.35 1182.17 880.35 1182.17 889.34"/><rect class="cls-1" x="1216.1" y="1023.91" width="16.24" height="34.22"/><path class="cls-2" d="M1233.21,1059h-18v-36h18Zm-16.24-1.74h14.5v-32.48H1217Z"/><rect class="cls-1" x="1187.68" y="1023.91" width="16.24" height="34.22"/><path class="cls-2" d="M1204.79,1059h-18v-36h18Zm-16.24-1.74h14.5v-32.48h-14.5Z"/><rect class="cls-1" x="1159.84" y="1023.91" width="16.24" height="34.22"/><path class="cls-2" d="M1177,1059h-18v-36h18Zm-16.24-1.74h14.5v-32.48h-14.5Z"/><rect class="cls-1" x="1131.42" y="1023.91" width="16.24" height="34.22"/><path class="cls-2" d="M1148.53,1059h-18v-36h18Zm-16.24-1.74h14.5v-32.48h-14.5Z"/><path class="cls-1" d="M1189.42,968.81a8.12,8.12,0,0,0-16.24,0,5.78,5.78,0,0,0,0,.58h0v19.14h16.24V969.39h0C1189.4,969.19,1189.42,969,1189.42,968.81Z"/><path class="cls-2" d="M1190.29,989.4h-18V968.52a9,9,0,0,1,18,.29c0,.1,0,.2,0,.3V989.4Zm-16.24-1.74h14.5v-17.4h-.06l0-1c0-.15,0-.3,0-.45a7.25,7.25,0,1,0-14.5,0c0,.15,0,.3,0,.45l.07,1h-.09Z"/><rect class="cls-1" x="945.11" y="751.88" width="169.61" height="306.25"/><path class="cls-2" d="M1115.47,1059H944.36V751h171.11Zm-169.61-1.74H1114V752.75H945.86Z"/><rect class="cls-1" x="1072.19" y="773.92" width="20.01" height="23.2"/><path class="cls-2" d="M1093,798h-21.51V773.05H1093Zm-20-1.74h18.51V774.79h-18.51Z"/><rect class="cls-1" x="1037.17" y="773.92" width="20.01" height="23.2"/><path class="cls-2" d="M1057.93,798h-21.51V773.05h21.51Zm-20-1.74h18.51V774.79h-18.51Z"/><rect class="cls-1" x="1002.14" y="774.5" width="20.01" height="23.2"/><path class="cls-2" d="M1022.91,798.57h-21.52V773.63h21.52Zm-20-1.74h18.51V775.37H1002.9Z"/><rect class="cls-1" x="967.12" y="774.5" width="20.01" height="23.2"/><path class="cls-2" d="M987.89,798.57H966.37V773.63h21.52Zm-20-1.74h18.51V775.37H967.87Z"/><rect class="cls-1" x="1072.19" y="816.26" width="20.01" height="23.2"/><path class="cls-2" d="M1093,840.33h-21.51V815.39H1093Zm-20-1.74h18.51V817.13h-18.51Z"/><rect class="cls-1" x="1037.17" y="816.26" width="20.01" height="23.2"/><path class="cls-2" d="M1057.93,840.33h-21.51V815.39h21.51Zm-20-1.74h18.51V817.13h-18.51Z"/><rect class="cls-1" x="1002.14" y="816.84" width="20.01" height="23.2"/><path class="cls-2" d="M1022.91,840.91h-21.52V816h21.52Zm-20-1.74h18.51V817.71H1002.9Z"/><rect class="cls-1" x="967.12" y="816.84" width="20.01" height="23.2"/><path class="cls-2" d="M987.89,840.91H966.37V816h21.52Zm-20-1.74h18.51V817.71H967.87Z"/><rect class="cls-1" x="1072.19" y="858.6" width="20.01" height="23.2"/><path class="cls-2" d="M1093,882.67h-21.51V857.73H1093Zm-20-1.74h18.51V859.47h-18.51Z"/><rect class="cls-1" x="1037.17" y="858.6" width="20.01" height="23.2"/><path class="cls-2" d="M1057.93,882.67h-21.51V857.73h21.51Zm-20-1.74h18.51V859.47h-18.51Z"/><rect class="cls-1" x="1002.14" y="859.18" width="20.01" height="23.2"/><path class="cls-2" d="M1022.91,883.25h-21.52V858.31h21.52Zm-20-1.74h18.51V860.05H1002.9Z"/><rect class="cls-1" x="967.12" y="859.18" width="20.01" height="23.2"/><path class="cls-2" d="M987.89,883.25H966.37V858.31h21.52Zm-20-1.74h18.51V860.05H967.87Z"/><rect class="cls-1" x="1072.19" y="900.94" width="20.01" height="23.2"/><path class="cls-2" d="M1093,925h-21.51V900.07H1093Zm-20-1.74h18.51V901.81h-18.51Z"/><rect class="cls-1" x="1037.17" y="900.94" width="20.01" height="23.2"/><path class="cls-2" d="M1057.93,925h-21.51V900.07h21.51Zm-20-1.74h18.51V901.81h-18.51Z"/><rect class="cls-1" x="1002.14" y="901.52" width="20.01" height="23.2"/><path class="cls-2" d="M1022.91,925.59h-21.52V900.65h21.52Zm-20-1.74h18.51V902.39H1002.9Z"/><rect class="cls-1" x="967.12" y="901.52" width="20.01" height="23.2"/><path class="cls-2" d="M987.89,925.59H966.37V900.65h21.52Zm-20-1.74h18.51V902.39H967.87Z"/><rect class="cls-1" x="1072.19" y="943.28" width="20.01" height="23.2"/><path class="cls-2" d="M1093,967.36h-21.51v-25H1093Zm-20-1.74h18.51V944.15h-18.51Z"/><rect class="cls-1" x="1037.17" y="943.28" width="20.01" height="23.2"/><path class="cls-2" d="M1057.93,967.36h-21.51v-25h21.51Zm-20-1.74h18.51V944.15h-18.51Z"/><rect class="cls-1" x="1002.14" y="943.86" width="20.01" height="23.2"/><path class="cls-2" d="M1022.91,967.94h-21.52V943h21.52Zm-20-1.74h18.51V944.73H1002.9Z"/><rect class="cls-1" x="967.12" y="943.86" width="20.01" height="23.2"/><path class="cls-2" d="M987.89,967.94H966.37V943h21.52Zm-20-1.74h18.51V944.73H967.87Z"/><rect class="cls-1" x="1072.19" y="985.63" width="20.01" height="23.2"/><path class="cls-2" d="M1093,1009.7h-21.51V984.76H1093Zm-20-1.74h18.51V986.5h-18.51Z"/><rect class="cls-1" x="1037.17" y="985.63" width="20.01" height="23.2"/><path class="cls-2" d="M1057.93,1009.7h-21.51V984.76h21.51Zm-20-1.74h18.51V986.5h-18.51Z"/><rect class="cls-1" x="1002.14" y="986.21" width="20.01" height="23.2"/><path class="cls-2" d="M1022.91,1010.28h-21.52V985.34h21.52Zm-20-1.74h18.51V987.08H1002.9Z"/><rect class="cls-1" x="967.12" y="986.21" width="20.01" height="23.2"/><path class="cls-2" d="M987.89,1010.28H966.37V985.34h21.52Zm-20-1.74h18.51V987.08H967.87Z"/><path class="cls-2" d="M1867.18,777.11h-21.51a1.45,1.45,0,0,1,0-2.9h21.51a1.45,1.45,0,1,1,0,2.9Z"/><path class="cls-2" d="M1834.91,777.11h-21.52a1.45,1.45,0,0,1,0-2.9h21.52a1.45,1.45,0,0,1,0,2.9Z"/><path class="cls-2" d="M1802.64,777.11h-21.52a1.45,1.45,0,1,1,0-2.9h21.52a1.45,1.45,0,0,1,0,2.9Z"/><path class="cls-2" d="M1770.37,777.11h-21.52a1.45,1.45,0,1,1,0-2.9h21.52a1.45,1.45,0,1,1,0,2.9Z"/><path class="cls-2" d="M1867.18,791.61h-21.51a1.45,1.45,0,0,1,0-2.9h21.51a1.45,1.45,0,1,1,0,2.9Z"/><path class="cls-2" d="M1834.91,791.61h-21.52a1.45,1.45,0,1,1,0-2.9h21.52a1.45,1.45,0,0,1,0,2.9Z"/><path class="cls-2" d="M1802.64,791.61h-21.52a1.45,1.45,0,1,1,0-2.9h21.52a1.45,1.45,0,0,1,0,2.9Z"/><path class="cls-2" d="M1770.37,791.61h-21.52a1.45,1.45,0,1,1,0-2.9h21.52a1.45,1.45,0,1,1,0,2.9Z"/><path class="cls-2" d="M1867.18,806.11h-21.51a1.45,1.45,0,0,1,0-2.9h21.51a1.45,1.45,0,1,1,0,2.9Z"/><path class="cls-2" d="M1834.91,806.11h-21.52a1.45,1.45,0,1,1,0-2.9h21.52a1.45,1.45,0,0,1,0,2.9Z"/><path class="cls-2" d="M1802.64,806.11h-21.52a1.45,1.45,0,1,1,0-2.9h21.52a1.45,1.45,0,0,1,0,2.9Z"/><path class="cls-2" d="M1770.37,806.11h-21.52a1.45,1.45,0,1,1,0-2.9h21.52a1.45,1.45,0,1,1,0,2.9Z"/><path class="cls-2" d="M1867.18,820.61h-21.51a1.45,1.45,0,0,1,0-2.9h21.51a1.45,1.45,0,1,1,0,2.9Z"/><path class="cls-2" d="M1834.91,820.61h-21.52a1.45,1.45,0,1,1,0-2.9h21.52a1.45,1.45,0,0,1,0,2.9Z"/><path class="cls-2" d="M1802.64,820.61h-21.52a1.45,1.45,0,1,1,0-2.9h21.52a1.45,1.45,0,0,1,0,2.9Z"/><path class="cls-2" d="M1770.37,820.61h-21.52a1.45,1.45,0,1,1,0-2.9h21.52a1.45,1.45,0,1,1,0,2.9Z"/><path class="cls-2" d="M1867.18,835.11h-21.51a1.45,1.45,0,1,1,0-2.9h21.51a1.45,1.45,0,1,1,0,2.9Z"/><path class="cls-2" d="M1834.91,835.11h-21.52a1.45,1.45,0,1,1,0-2.9h21.52a1.45,1.45,0,0,1,0,2.9Z"/><path class="cls-2" d="M1802.64,835.11h-21.52a1.45,1.45,0,1,1,0-2.9h21.52a1.45,1.45,0,0,1,0,2.9Z"/><path class="cls-2" d="M1770.37,835.11h-21.52a1.45,1.45,0,1,1,0-2.9h21.52a1.45,1.45,0,1,1,0,2.9Z"/><path class="cls-2" d="M1867.18,849.61h-21.51a1.45,1.45,0,1,1,0-2.9h21.51a1.45,1.45,0,1,1,0,2.9Z"/><path class="cls-2" d="M1834.91,849.61h-21.52a1.45,1.45,0,1,1,0-2.9h21.52a1.45,1.45,0,0,1,0,2.9Z"/><path class="cls-2" d="M1802.64,849.61h-21.52a1.45,1.45,0,1,1,0-2.9h21.52a1.45,1.45,0,0,1,0,2.9Z"/><path class="cls-2" d="M1770.37,849.61h-21.52a1.45,1.45,0,1,1,0-2.9h21.52a1.45,1.45,0,1,1,0,2.9Z"/><path class="cls-2" d="M1867.18,864.11h-21.51a1.45,1.45,0,1,1,0-2.9h21.51a1.45,1.45,0,1,1,0,2.9Z"/><path class="cls-2" d="M1834.91,864.11h-21.52a1.45,1.45,0,1,1,0-2.9h21.52a1.45,1.45,0,0,1,0,2.9Z"/><path class="cls-2" d="M1802.64,864.11h-21.52a1.45,1.45,0,1,1,0-2.9h21.52a1.45,1.45,0,0,1,0,2.9Z"/><path class="cls-2" d="M1770.37,864.11h-21.52a1.45,1.45,0,1,1,0-2.9h21.52a1.45,1.45,0,1,1,0,2.9Z"/><path class="cls-2" d="M1867.18,878.61h-21.51a1.45,1.45,0,1,1,0-2.9h21.51a1.45,1.45,0,1,1,0,2.9Z"/><path class="cls-2" d="M1834.91,878.61h-21.52a1.45,1.45,0,1,1,0-2.9h21.52a1.45,1.45,0,0,1,0,2.9Z"/><path class="cls-2" d="M1802.64,878.61h-21.52a1.45,1.45,0,1,1,0-2.9h21.52a1.45,1.45,0,0,1,0,2.9Z"/><path class="cls-2" d="M1770.37,878.61h-21.52a1.45,1.45,0,1,1,0-2.9h21.52a1.45,1.45,0,1,1,0,2.9Z"/><path class="cls-2" d="M1867.18,893.11h-21.51a1.45,1.45,0,1,1,0-2.9h21.51a1.45,1.45,0,1,1,0,2.9Z"/><path class="cls-2" d="M1834.91,893.11h-21.52a1.45,1.45,0,1,1,0-2.9h21.52a1.45,1.45,0,0,1,0,2.9Z"/><path class="cls-2" d="M1802.64,893.11h-21.52a1.45,1.45,0,1,1,0-2.9h21.52a1.45,1.45,0,0,1,0,2.9Z"/><path class="cls-2" d="M1770.37,893.11h-21.52a1.45,1.45,0,1,1,0-2.9h21.52a1.45,1.45,0,1,1,0,2.9Z"/><path class="cls-2" d="M1867.18,907.61h-21.51a1.45,1.45,0,1,1,0-2.9h21.51a1.45,1.45,0,1,1,0,2.9Z"/><path class="cls-2" d="M1834.91,907.61h-21.52a1.45,1.45,0,1,1,0-2.9h21.52a1.45,1.45,0,0,1,0,2.9Z"/><path class="cls-2" d="M1802.64,907.61h-21.52a1.45,1.45,0,1,1,0-2.9h21.52a1.45,1.45,0,0,1,0,2.9Z"/><path class="cls-2" d="M1770.37,907.61h-21.52a1.45,1.45,0,1,1,0-2.9h21.52a1.45,1.45,0,1,1,0,2.9Z"/><path class="cls-2" d="M1867.18,922.11h-21.51a1.45,1.45,0,1,1,0-2.9h21.51a1.45,1.45,0,1,1,0,2.9Z"/><path class="cls-2" d="M1834.91,922.11h-21.52a1.45,1.45,0,1,1,0-2.9h21.52a1.45,1.45,0,0,1,0,2.9Z"/><path class="cls-2" d="M1802.64,922.11h-21.52a1.45,1.45,0,1,1,0-2.9h21.52a1.45,1.45,0,0,1,0,2.9Z"/><path class="cls-2" d="M1770.37,922.11h-21.52a1.45,1.45,0,1,1,0-2.9h21.52a1.45,1.45,0,1,1,0,2.9Z"/><path class="cls-2" d="M1867.18,936.61h-21.51a1.45,1.45,0,1,1,0-2.9h21.51a1.45,1.45,0,1,1,0,2.9Z"/><path class="cls-2" d="M1834.91,936.61h-21.52a1.45,1.45,0,1,1,0-2.9h21.52a1.45,1.45,0,0,1,0,2.9Z"/><path class="cls-2" d="M1802.64,936.61h-21.52a1.45,1.45,0,1,1,0-2.9h21.52a1.45,1.45,0,0,1,0,2.9Z"/><path class="cls-2" d="M1770.37,936.61h-21.52a1.45,1.45,0,1,1,0-2.9h21.52a1.45,1.45,0,1,1,0,2.9Z"/><path class="cls-2" d="M1867.18,951.12h-21.51a1.45,1.45,0,1,1,0-2.9h21.51a1.45,1.45,0,1,1,0,2.9Z"/><path class="cls-2" d="M1834.91,951.12h-21.52a1.45,1.45,0,1,1,0-2.9h21.52a1.45,1.45,0,0,1,0,2.9Z"/><path class="cls-2" d="M1802.64,951.12h-21.52a1.45,1.45,0,1,1,0-2.9h21.52a1.45,1.45,0,0,1,0,2.9Z"/><path class="cls-2" d="M1770.37,951.12h-21.52a1.45,1.45,0,1,1,0-2.9h21.52a1.45,1.45,0,1,1,0,2.9Z"/><path class="cls-2" d="M1867.18,965.62h-21.51a1.45,1.45,0,1,1,0-2.9h21.51a1.45,1.45,0,1,1,0,2.9Z"/><path class="cls-2" d="M1834.91,965.62h-21.52a1.45,1.45,0,1,1,0-2.9h21.52a1.45,1.45,0,0,1,0,2.9Z"/><path class="cls-2" d="M1802.64,965.62h-21.52a1.45,1.45,0,1,1,0-2.9h21.52a1.45,1.45,0,0,1,0,2.9Z"/><path class="cls-2" d="M1770.37,965.62h-21.52a1.45,1.45,0,1,1,0-2.9h21.52a1.45,1.45,0,1,1,0,2.9Z"/><path class="cls-2" d="M1867.18,980.12h-21.51a1.45,1.45,0,1,1,0-2.9h21.51a1.45,1.45,0,1,1,0,2.9Z"/><path class="cls-2" d="M1834.91,980.12h-21.52a1.45,1.45,0,1,1,0-2.9h21.52a1.45,1.45,0,0,1,0,2.9Z"/><path class="cls-2" d="M1802.64,980.12h-21.52a1.45,1.45,0,1,1,0-2.9h21.52a1.45,1.45,0,0,1,0,2.9Z"/><path class="cls-2" d="M1770.37,980.12h-21.52a1.45,1.45,0,1,1,0-2.9h21.52a1.45,1.45,0,1,1,0,2.9Z"/><path class="cls-2" d="M1867.18,994.62h-21.51a1.45,1.45,0,1,1,0-2.9h21.51a1.45,1.45,0,1,1,0,2.9Z"/><path class="cls-2" d="M1834.91,994.62h-21.52a1.45,1.45,0,1,1,0-2.9h21.52a1.45,1.45,0,0,1,0,2.9Z"/><path class="cls-2" d="M1802.64,994.62h-21.52a1.45,1.45,0,1,1,0-2.9h21.52a1.45,1.45,0,0,1,0,2.9Z"/><path class="cls-2" d="M1770.37,994.62h-21.52a1.45,1.45,0,1,1,0-2.9h21.52a1.45,1.45,0,1,1,0,2.9Z"/><path class="cls-2" d="M1867.18,1009.12h-21.51a1.45,1.45,0,1,1,0-2.9h21.51a1.45,1.45,0,1,1,0,2.9Z"/><path class="cls-2" d="M1834.91,1009.12h-21.52a1.45,1.45,0,1,1,0-2.9h21.52a1.45,1.45,0,0,1,0,2.9Z"/><path class="cls-2" d="M1802.64,1009.12h-21.52a1.45,1.45,0,1,1,0-2.9h21.52a1.45,1.45,0,0,1,0,2.9Z"/><path class="cls-2" d="M1770.37,1009.12h-21.52a1.45,1.45,0,1,1,0-2.9h21.52a1.45,1.45,0,1,1,0,2.9Z"/><path class="cls-2" d="M1536.78,630.36h-21.52a1.45,1.45,0,1,1,0-2.9h21.52a1.45,1.45,0,1,1,0,2.9Z"/><path class="cls-2" d="M1504.51,630.36H1483a1.45,1.45,0,1,1,0-2.9h21.52a1.45,1.45,0,1,1,0,2.9Z"/><path class="cls-2" d="M1472.23,630.36h-21.51a1.45,1.45,0,1,1,0-2.9h21.51a1.45,1.45,0,1,1,0,2.9Z"/><path class="cls-2" d="M1536.78,644.86h-21.52a1.45,1.45,0,1,1,0-2.9h21.52a1.45,1.45,0,1,1,0,2.9Z"/><path class="cls-2" d="M1504.51,644.86H1483a1.45,1.45,0,1,1,0-2.9h21.52a1.45,1.45,0,1,1,0,2.9Z"/><path class="cls-2" d="M1472.23,644.86h-21.51a1.45,1.45,0,1,1,0-2.9h21.51a1.45,1.45,0,1,1,0,2.9Z"/><path class="cls-2" d="M1536.78,659.36h-21.52a1.45,1.45,0,1,1,0-2.9h21.52a1.45,1.45,0,1,1,0,2.9Z"/><path class="cls-2" d="M1504.51,659.36H1483a1.45,1.45,0,1,1,0-2.9h21.52a1.45,1.45,0,1,1,0,2.9Z"/><path class="cls-2" d="M1472.23,659.36h-21.51a1.45,1.45,0,1,1,0-2.9h21.51a1.45,1.45,0,1,1,0,2.9Z"/><path class="cls-2" d="M1536.78,673.86h-21.52a1.45,1.45,0,1,1,0-2.9h21.52a1.45,1.45,0,1,1,0,2.9Z"/><path class="cls-2" d="M1504.51,673.86H1483a1.45,1.45,0,1,1,0-2.9h21.52a1.45,1.45,0,1,1,0,2.9Z"/><path class="cls-2" d="M1472.23,673.86h-21.51a1.45,1.45,0,1,1,0-2.9h21.51a1.45,1.45,0,1,1,0,2.9Z"/><path class="cls-2" d="M1536.78,688.36h-21.52a1.45,1.45,0,1,1,0-2.9h21.52a1.45,1.45,0,1,1,0,2.9Z"/><path class="cls-2" d="M1504.51,688.36H1483a1.45,1.45,0,1,1,0-2.9h21.52a1.45,1.45,0,1,1,0,2.9Z"/><path class="cls-2" d="M1472.23,688.36h-21.51a1.45,1.45,0,1,1,0-2.9h21.51a1.45,1.45,0,1,1,0,2.9Z"/><path class="cls-2" d="M1536.78,702.86h-21.52a1.45,1.45,0,1,1,0-2.9h21.52a1.45,1.45,0,1,1,0,2.9Z"/><path class="cls-2" d="M1504.51,702.86H1483a1.45,1.45,0,1,1,0-2.9h21.52a1.45,1.45,0,1,1,0,2.9Z"/><path class="cls-2" d="M1472.23,702.86h-21.51a1.45,1.45,0,1,1,0-2.9h21.51a1.45,1.45,0,1,1,0,2.9Z"/><path class="cls-2" d="M1536.78,717.36h-21.52a1.45,1.45,0,1,1,0-2.9h21.52a1.45,1.45,0,1,1,0,2.9Z"/><path class="cls-2" d="M1504.51,717.36H1483a1.45,1.45,0,1,1,0-2.9h21.52a1.45,1.45,0,1,1,0,2.9Z"/><path class="cls-2" d="M1472.23,717.36h-21.51a1.45,1.45,0,1,1,0-2.9h21.51a1.45,1.45,0,1,1,0,2.9Z"/><path class="cls-2" d="M1536.78,731.87h-21.52a1.45,1.45,0,1,1,0-2.9h21.52a1.45,1.45,0,1,1,0,2.9Z"/><path class="cls-2" d="M1504.51,731.87H1483a1.45,1.45,0,1,1,0-2.9h21.52a1.45,1.45,0,1,1,0,2.9Z"/><path class="cls-2" d="M1472.23,731.87h-21.51a1.45,1.45,0,1,1,0-2.9h21.51a1.45,1.45,0,1,1,0,2.9Z"/><path class="cls-2" d="M1536.78,746.37h-21.52a1.45,1.45,0,1,1,0-2.9h21.52a1.45,1.45,0,1,1,0,2.9Z"/><path class="cls-2" d="M1504.51,746.37H1483a1.45,1.45,0,1,1,0-2.9h21.52a1.45,1.45,0,1,1,0,2.9Z"/><path class="cls-2" d="M1472.23,746.37h-21.51a1.45,1.45,0,1,1,0-2.9h21.51a1.45,1.45,0,1,1,0,2.9Z"/><path class="cls-2" d="M1536.78,760.87h-21.52a1.45,1.45,0,1,1,0-2.9h21.52a1.45,1.45,0,1,1,0,2.9Z"/><path class="cls-2" d="M1504.51,760.87H1483a1.45,1.45,0,1,1,0-2.9h21.52a1.45,1.45,0,1,1,0,2.9Z"/><path class="cls-2" d="M1472.23,760.87h-21.51a1.45,1.45,0,1,1,0-2.9h21.51a1.45,1.45,0,1,1,0,2.9Z"/><path class="cls-2" d="M1536.78,775.37h-21.52a1.45,1.45,0,1,1,0-2.9h21.52a1.45,1.45,0,1,1,0,2.9Z"/><path class="cls-2" d="M1504.51,775.37H1483a1.45,1.45,0,1,1,0-2.9h21.52a1.45,1.45,0,1,1,0,2.9Z"/><path class="cls-2" d="M1472.23,775.37h-21.51a1.45,1.45,0,1,1,0-2.9h21.51a1.45,1.45,0,1,1,0,2.9Z"/><path class="cls-2" d="M1536.78,789.87h-21.52a1.45,1.45,0,1,1,0-2.9h21.52a1.45,1.45,0,1,1,0,2.9Z"/><path class="cls-2" d="M1504.51,789.87H1483a1.45,1.45,0,1,1,0-2.9h21.52a1.45,1.45,0,1,1,0,2.9Z"/><path class="cls-2" d="M1472.23,789.87h-21.51a1.45,1.45,0,1,1,0-2.9h21.51a1.45,1.45,0,1,1,0,2.9Z"/><path class="cls-2" d="M1536.78,804.37h-21.52a1.45,1.45,0,1,1,0-2.9h21.52a1.45,1.45,0,1,1,0,2.9Z"/><path class="cls-2" d="M1504.51,804.37H1483a1.45,1.45,0,1,1,0-2.9h21.52a1.45,1.45,0,1,1,0,2.9Z"/><path class="cls-2" d="M1472.23,804.37h-21.51a1.45,1.45,0,1,1,0-2.9h21.51a1.45,1.45,0,1,1,0,2.9Z"/><path class="cls-2" d="M1536.78,818.87h-21.52a1.45,1.45,0,1,1,0-2.9h21.52a1.45,1.45,0,1,1,0,2.9Z"/><path class="cls-2" d="M1504.51,818.87H1483a1.45,1.45,0,1,1,0-2.9h21.52a1.45,1.45,0,1,1,0,2.9Z"/><path class="cls-2" d="M1472.23,818.87h-21.51a1.45,1.45,0,1,1,0-2.9h21.51a1.45,1.45,0,1,1,0,2.9Z"/><path class="cls-2" d="M1536.78,833.37h-21.52a1.45,1.45,0,1,1,0-2.9h21.52a1.45,1.45,0,1,1,0,2.9Z"/><path class="cls-2" d="M1504.51,833.37H1483a1.45,1.45,0,1,1,0-2.9h21.52a1.45,1.45,0,1,1,0,2.9Z"/><path class="cls-2" d="M1472.23,833.37h-21.51a1.45,1.45,0,1,1,0-2.9h21.51a1.45,1.45,0,1,1,0,2.9Z"/><path class="cls-2" d="M1536.78,847.87h-21.52a1.45,1.45,0,1,1,0-2.9h21.52a1.45,1.45,0,1,1,0,2.9Z"/><path class="cls-2" d="M1504.51,847.87H1483a1.45,1.45,0,1,1,0-2.9h21.52a1.45,1.45,0,1,1,0,2.9Z"/><path class="cls-2" d="M1472.23,847.87h-21.51a1.45,1.45,0,1,1,0-2.9h21.51a1.45,1.45,0,1,1,0,2.9Z"/><path class="cls-2" d="M1536.78,862.37h-21.52a1.45,1.45,0,1,1,0-2.9h21.52a1.45,1.45,0,1,1,0,2.9Z"/><path class="cls-2" d="M1504.51,862.37H1483a1.45,1.45,0,1,1,0-2.9h21.52a1.45,1.45,0,1,1,0,2.9Z"/><path class="cls-2" d="M1472.23,862.37h-21.51a1.45,1.45,0,1,1,0-2.9h21.51a1.45,1.45,0,1,1,0,2.9Z"/><path class="cls-2" d="M1536.78,876.87h-21.52a1.45,1.45,0,1,1,0-2.9h21.52a1.45,1.45,0,1,1,0,2.9Z"/><path class="cls-2" d="M1504.51,876.87H1483a1.45,1.45,0,1,1,0-2.9h21.52a1.45,1.45,0,1,1,0,2.9Z"/><path class="cls-2" d="M1472.23,876.87h-21.51a1.45,1.45,0,1,1,0-2.9h21.51a1.45,1.45,0,1,1,0,2.9Z"/><path class="cls-2" d="M1536.78,891.37h-21.52a1.45,1.45,0,1,1,0-2.9h21.52a1.45,1.45,0,1,1,0,2.9Z"/><path class="cls-2" d="M1504.51,891.37H1483a1.45,1.45,0,1,1,0-2.9h21.52a1.45,1.45,0,1,1,0,2.9Z"/><path class="cls-2" d="M1472.23,891.37h-21.51a1.45,1.45,0,1,1,0-2.9h21.51a1.45,1.45,0,1,1,0,2.9Z"/><path class="cls-2" d="M1536.78,905.87h-21.52a1.45,1.45,0,1,1,0-2.9h21.52a1.45,1.45,0,1,1,0,2.9Z"/><path class="cls-2" d="M1504.51,905.87H1483a1.45,1.45,0,1,1,0-2.9h21.52a1.45,1.45,0,1,1,0,2.9Z"/><path class="cls-2" d="M1472.23,905.87h-21.51a1.45,1.45,0,1,1,0-2.9h21.51a1.45,1.45,0,1,1,0,2.9Z"/><path class="cls-2" d="M1536.78,920.37h-21.52a1.45,1.45,0,1,1,0-2.9h21.52a1.45,1.45,0,1,1,0,2.9Z"/><path class="cls-2" d="M1504.51,920.37H1483a1.45,1.45,0,1,1,0-2.9h21.52a1.45,1.45,0,1,1,0,2.9Z"/><path class="cls-2" d="M1472.23,920.37h-21.51a1.45,1.45,0,1,1,0-2.9h21.51a1.45,1.45,0,1,1,0,2.9Z"/><path class="cls-2" d="M1536.78,934.87h-21.52a1.45,1.45,0,1,1,0-2.9h21.52a1.45,1.45,0,1,1,0,2.9Z"/><path class="cls-2" d="M1504.51,934.87H1483a1.45,1.45,0,1,1,0-2.9h21.52a1.45,1.45,0,1,1,0,2.9Z"/><path class="cls-2" d="M1472.23,934.87h-21.51a1.45,1.45,0,1,1,0-2.9h21.51a1.45,1.45,0,1,1,0,2.9Z"/><path class="cls-2" d="M1536.78,949.38h-21.52a1.45,1.45,0,1,1,0-2.9h21.52a1.45,1.45,0,1,1,0,2.9Z"/><path class="cls-2" d="M1504.51,949.38H1483a1.45,1.45,0,1,1,0-2.9h21.52a1.45,1.45,0,1,1,0,2.9Z"/><path class="cls-2" d="M1472.23,949.38h-21.51a1.45,1.45,0,0,1,0-2.9h21.51a1.45,1.45,0,1,1,0,2.9Z"/><path class="cls-2" d="M1536.78,963.88h-21.52a1.45,1.45,0,1,1,0-2.9h21.52a1.45,1.45,0,1,1,0,2.9Z"/><path class="cls-2" d="M1504.51,963.88H1483a1.45,1.45,0,1,1,0-2.9h21.52a1.45,1.45,0,1,1,0,2.9Z"/><path class="cls-2" d="M1472.23,963.88h-21.51a1.45,1.45,0,0,1,0-2.9h21.51a1.45,1.45,0,1,1,0,2.9Z"/><path class="cls-2" d="M1536.78,978.38h-21.52a1.45,1.45,0,1,1,0-2.9h21.52a1.45,1.45,0,1,1,0,2.9Z"/><path class="cls-2" d="M1504.51,978.38H1483a1.45,1.45,0,0,1,0-2.9h21.52a1.45,1.45,0,1,1,0,2.9Z"/><path class="cls-2" d="M1472.23,978.38h-21.51a1.45,1.45,0,0,1,0-2.9h21.51a1.45,1.45,0,1,1,0,2.9Z"/><path class="cls-2" d="M1536.78,992.88h-21.52a1.45,1.45,0,1,1,0-2.9h21.52a1.45,1.45,0,1,1,0,2.9Z"/><path class="cls-2" d="M1504.51,992.88H1483a1.45,1.45,0,0,1,0-2.9h21.52a1.45,1.45,0,1,1,0,2.9Z"/><path class="cls-2" d="M1472.23,992.88h-21.51a1.45,1.45,0,0,1,0-2.9h21.51a1.45,1.45,0,1,1,0,2.9Z"/><path class="cls-2" d="M1536.78,1007.38h-21.52a1.45,1.45,0,0,1,0-2.9h21.52a1.45,1.45,0,1,1,0,2.9Z"/><path class="cls-2" d="M1504.51,1007.38H1483a1.45,1.45,0,0,1,0-2.9h21.52a1.45,1.45,0,1,1,0,2.9Z"/><path class="cls-2" d="M1472.23,1007.38h-21.51a1.45,1.45,0,0,1,0-2.9h21.51a1.45,1.45,0,1,1,0,2.9Z"/><path class="cls-2" d="M1421.72,1059H1248.29V980.85h19l154.42-47.15ZM1250,1057.26h170V936.05l-152.42,46.54H1250Z"/><rect class="cls-1" x="1344.87" y="876" width="48.14" height="182.13"/><path class="cls-2" d="M1393.88,1059H1344V875.13h49.88Zm-48.14-1.74h46.4V876.87h-46.4Z"/><path class="cls-2" d="M1377.93,909.54a1.16,1.16,0,0,1-1.16-1.16V886.15a1.16,1.16,0,1,1,2.32,0v22.23A1.16,1.16,0,0,1,1377.93,909.54Z"/><path class="cls-2" d="M1358.79,909.54a1.16,1.16,0,0,1-1.16-1.16V886.15a1.16,1.16,0,0,1,2.32,0v22.23A1.16,1.16,0,0,1,1358.79,909.54Z"/><path class="cls-2" d="M1378.22,944.47a1.16,1.16,0,0,1-1.16-1.16V921.08a1.16,1.16,0,0,1,2.32,0v22.23A1.16,1.16,0,0,1,1378.22,944.47Z"/><path class="cls-2" d="M1359.08,944.47a1.16,1.16,0,0,1-1.16-1.16V921.08a1.16,1.16,0,0,1,2.32,0v22.23A1.16,1.16,0,0,1,1359.08,944.47Z"/><path class="cls-2" d="M1378.51,979.41a1.16,1.16,0,0,1-1.16-1.16V956a1.16,1.16,0,0,1,2.32,0v22.23A1.16,1.16,0,0,1,1378.51,979.41Z"/><path class="cls-2" d="M1359.37,979.41a1.16,1.16,0,0,1-1.16-1.16V956a1.16,1.16,0,0,1,2.32,0v22.23A1.16,1.16,0,0,1,1359.37,979.41Z"/><path class="cls-2" d="M1378.8,1014.34a1.16,1.16,0,0,1-1.16-1.16V991a1.16,1.16,0,0,1,2.32,0v22.23A1.16,1.16,0,0,1,1378.8,1014.34Z"/><path class="cls-2" d="M1359.66,1014.34a1.16,1.16,0,0,1-1.16-1.16V991a1.16,1.16,0,1,1,2.32,0v22.23A1.16,1.16,0,0,1,1359.66,1014.34Z"/><path class="cls-2" d="M1378.8,1049.72a1.16,1.16,0,0,1-1.16-1.16v-22.23a1.16,1.16,0,0,1,2.32,0v22.23A1.16,1.16,0,0,1,1378.8,1049.72Z"/><path class="cls-2" d="M1359.66,1049.72a1.16,1.16,0,0,1-1.16-1.16v-22.23a1.16,1.16,0,1,1,2.32,0v22.23A1.16,1.16,0,0,1,1359.66,1049.72Z"/><rect class="cls-1" x="1277.58" y="876" width="48.14" height="182.13"/><path class="cls-2" d="M1326.6,1059h-49.89V875.13h49.89Zm-48.15-1.74h46.41V876.87h-46.41Z"/><path class="cls-2" d="M1310.64,909.54a1.16,1.16,0,0,1-1.16-1.16V886.15a1.16,1.16,0,1,1,2.32,0v22.23A1.15,1.15,0,0,1,1310.64,909.54Z"/><path class="cls-2" d="M1291.5,909.54a1.16,1.16,0,0,1-1.16-1.16V886.15a1.16,1.16,0,0,1,2.32,0v22.23A1.16,1.16,0,0,1,1291.5,909.54Z"/><path class="cls-2" d="M1310.93,944.47a1.16,1.16,0,0,1-1.16-1.16V921.08a1.16,1.16,0,1,1,2.32,0v22.23A1.15,1.15,0,0,1,1310.93,944.47Z"/><path class="cls-2" d="M1291.79,944.47a1.16,1.16,0,0,1-1.16-1.16V921.08a1.16,1.16,0,0,1,2.32,0v22.23A1.16,1.16,0,0,1,1291.79,944.47Z"/><path class="cls-2" d="M1311.22,979.41a1.16,1.16,0,0,1-1.16-1.16V956a1.16,1.16,0,0,1,2.32,0v22.23A1.15,1.15,0,0,1,1311.22,979.41Z"/><path class="cls-2" d="M1292.08,979.41a1.16,1.16,0,0,1-1.16-1.16V956a1.16,1.16,0,0,1,2.32,0v22.23A1.16,1.16,0,0,1,1292.08,979.41Z"/><path class="cls-2" d="M1311.51,1014.34a1.16,1.16,0,0,1-1.16-1.16V991a1.16,1.16,0,0,1,2.32,0v22.23A1.15,1.15,0,0,1,1311.51,1014.34Z"/><path class="cls-2" d="M1292.37,1014.34a1.16,1.16,0,0,1-1.16-1.16V991a1.16,1.16,0,0,1,2.32,0v22.23A1.16,1.16,0,0,1,1292.37,1014.34Z"/><path class="cls-2" d="M1311.51,1049.72a1.16,1.16,0,0,1-1.16-1.16v-22.23a1.16,1.16,0,0,1,2.32,0v22.23A1.15,1.15,0,0,1,1311.51,1049.72Z"/><path class="cls-2" d="M1292.37,1049.72a1.16,1.16,0,0,1-1.16-1.16v-22.23a1.16,1.16,0,0,1,2.32,0v22.23A1.16,1.16,0,0,1,1292.37,1049.72Z"/><rect class="cls-1" x="1182.46" y="775.08" width="20.88" height="11.6"/><path class="cls-2" d="M1204.21,787.55h-22.62V774.21h22.62Zm-20.88-1.74h19.14V776h-19.14Z"/><path class="cls-2" d="M933.92,1059H784.27V923.85H933.92ZM786,1057.26H932.18V925.59H786Z"/><path class="cls-2" d="M817.38,1059H790.94V999.43a13.22,13.22,0,0,1,26.44,0Zm-24.7-1.74h23V999.43a11.48,11.48,0,0,0-23,0Z"/><path class="cls-2" d="M853.93,1059H827.48V999.43a13.23,13.23,0,0,1,26.45,0Zm-24.71-1.74h23V999.43a11.49,11.49,0,0,0-23,0Z"/><path class="cls-2" d="M890.47,1059H864V999.43a13.23,13.23,0,0,1,26.45,0Zm-24.7-1.74h23V999.43a11.48,11.48,0,0,0-23,0Z"/><path class="cls-2" d="M927,1059H900.57V999.43a13.22,13.22,0,0,1,26.44,0Zm-24.7-1.74h23V999.43a11.48,11.48,0,0,0-23,0Z"/><path class="cls-2" d="M927,962.72H790.65V940.67H927ZM792.39,961H925.22V942.41H792.39Z"/><rect class="cls-1" x="781.08" y="974.61" width="156.03" height="4.64"/><path class="cls-2" d="M938,980.12H780.21v-6.38H938Zm-156-1.74H936.24v-2.9H782Z"/><path class="cls-2" d="M938,925.59H780.21v-6.38H938Zm-156-1.74H936.24V921H782Z"/><path class="cls-2" d="M927,921H790.65v-22H927Zm-134.57-1.74H925.22V900.65H792.39Z"/><path class="cls-2" d="M934.5,900.65H783.69v-6.38H934.5Zm-149.07-1.74H932.76V896H785.43Z"/><path class="cls-2" d="M873.65,896H844.2l9.74-16.87a8.7,8.7,0,1,1,10.07.18Zm-26.44-1.74h23.43l-9-15.59.78-.42a7,7,0,1,0-10.29-6.12,6.9,6.9,0,0,0,3.42,6l.74.44Z"/><path class="cls-2" d="M774.53,840.33v216.93H624.89V840.33H774.53m1.74-1.74H623.15V1059H776.27V838.59Z"/><path class="cls-2" d="M759.45,855.41H722.33a1.45,1.45,0,0,1,0-2.9h37.12a1.45,1.45,0,0,1,0,2.9Z"/><path class="cls-2" d="M713.47,855.41H702.61a1.45,1.45,0,0,1,0-2.9h10.86a1.45,1.45,0,0,1,0,2.9Z"/><path class="cls-2" d="M693.62,855.41H657.08a1.45,1.45,0,0,1,0-2.9h36.54a1.45,1.45,0,0,1,0,2.9Z"/><path class="cls-2" d="M648.67,855.41h-9.86a1.45,1.45,0,0,1,0-2.9h9.86a1.45,1.45,0,0,1,0,2.9Z"/><path class="cls-2" d="M675.64,869.91H639.1a1.45,1.45,0,0,1,0-2.9h36.54a1.45,1.45,0,0,1,0,2.9Z"/><path class="cls-2" d="M685.21,869.91h-.87a1.45,1.45,0,0,1,0-2.9h.87a1.45,1.45,0,0,1,0,2.9Z"/><path class="cls-2" d="M702,869.91h-8.41a1.45,1.45,0,0,1,0-2.9H702a1.45,1.45,0,0,1,0,2.9Z"/><path class="cls-2" d="M759.45,869.91h-49a1.45,1.45,0,0,1,0-2.9h49a1.45,1.45,0,0,1,0,2.9Z"/><path class="cls-2" d="M675.93,898.91H638.81a1.45,1.45,0,1,1,0-2.9h37.12a1.45,1.45,0,0,1,0,2.9Z"/><path class="cls-2" d="M695.65,898.91H684.79a1.45,1.45,0,0,1,0-2.9h10.86a1.45,1.45,0,0,1,0,2.9Z"/><path class="cls-2" d="M741.18,898.91H704.64a1.45,1.45,0,0,1,0-2.9h36.54a1.45,1.45,0,0,1,0,2.9Z"/><path class="cls-2" d="M759.45,898.91h-9.86a1.45,1.45,0,0,1,0-2.9h9.86a1.45,1.45,0,0,1,0,2.9Z"/><path class="cls-2" d="M759.16,884.41H722.62a1.45,1.45,0,0,1,0-2.9h36.54a1.45,1.45,0,0,1,0,2.9Z"/><path class="cls-2" d="M713.92,884.41h-.87a1.45,1.45,0,0,1,0-2.9h.87a1.45,1.45,0,0,1,0,2.9Z"/><path class="cls-2" d="M704.64,884.41h-8.41a1.45,1.45,0,0,1,0-2.9h8.41a1.45,1.45,0,0,1,0,2.9Z"/><path class="cls-2" d="M687.82,884.41h-49a1.45,1.45,0,0,1,0-2.9h49a1.45,1.45,0,0,1,0,2.9Z"/><path class="cls-2" d="M676.51,956.34H639.39a1.45,1.45,0,1,1,0-2.9h37.12a1.45,1.45,0,1,1,0,2.9Z"/><path class="cls-2" d="M696.23,956.34H685.37a1.45,1.45,0,0,1,0-2.9h10.86a1.45,1.45,0,0,1,0,2.9Z"/><path class="cls-2" d="M741.76,956.34H705.22a1.45,1.45,0,1,1,0-2.9h36.54a1.45,1.45,0,1,1,0,2.9Z"/><path class="cls-2" d="M760,956.34h-9.86a1.45,1.45,0,1,1,0-2.9H760a1.45,1.45,0,1,1,0,2.9Z"/><path class="cls-2" d="M759.74,941.83H723.2a1.45,1.45,0,0,1,0-2.9h36.54a1.45,1.45,0,0,1,0,2.9Z"/><path class="cls-2" d="M714.5,941.83h-.87a1.45,1.45,0,0,1,0-2.9h.87a1.45,1.45,0,0,1,0,2.9Z"/><path class="cls-2" d="M705.22,941.83h-8.41a1.45,1.45,0,1,1,0-2.9h8.41a1.45,1.45,0,0,1,0,2.9Z"/><path class="cls-2" d="M688.4,941.83h-49a1.45,1.45,0,1,1,0-2.9h49a1.45,1.45,0,0,1,0,2.9Z"/><path class="cls-2" d="M760,912.83H722.91a1.45,1.45,0,1,1,0-2.9H760a1.45,1.45,0,0,1,0,2.9Z"/><path class="cls-2" d="M714.05,912.83H703.19a1.45,1.45,0,0,1,0-2.9h10.86a1.45,1.45,0,0,1,0,2.9Z"/><path class="cls-2" d="M694.2,912.83H657.66a1.45,1.45,0,1,1,0-2.9H694.2a1.45,1.45,0,0,1,0,2.9Z"/><path class="cls-2" d="M649.25,912.83h-9.86a1.45,1.45,0,1,1,0-2.9h9.86a1.45,1.45,0,0,1,0,2.9Z"/><path class="cls-2" d="M676.22,927.33H639.68a1.45,1.45,0,1,1,0-2.9h36.54a1.45,1.45,0,0,1,0,2.9Z"/><path class="cls-2" d="M685.79,927.33h-.87a1.45,1.45,0,1,1,0-2.9h.87a1.45,1.45,0,0,1,0,2.9Z"/><path class="cls-2" d="M702.61,927.33H694.2a1.45,1.45,0,0,1,0-2.9h8.41a1.45,1.45,0,0,1,0,2.9Z"/><path class="cls-2" d="M760,927.33H711a1.45,1.45,0,1,1,0-2.9h49a1.45,1.45,0,0,1,0,2.9Z"/><path class="cls-2" d="M759.45,967.94H722.33a1.45,1.45,0,0,1,0-2.9h37.12a1.45,1.45,0,0,1,0,2.9Z"/><path class="cls-2" d="M713.47,967.94H702.61a1.45,1.45,0,1,1,0-2.9h10.86a1.45,1.45,0,0,1,0,2.9Z"/><path class="cls-2" d="M693.62,967.94H657.08a1.45,1.45,0,0,1,0-2.9h36.54a1.45,1.45,0,1,1,0,2.9Z"/><path class="cls-2" d="M648.67,967.94h-9.86a1.45,1.45,0,1,1,0-2.9h9.86a1.45,1.45,0,0,1,0,2.9Z"/><path class="cls-2" d="M675.64,982.44H639.1a1.45,1.45,0,0,1,0-2.9h36.54a1.45,1.45,0,1,1,0,2.9Z"/><path class="cls-2" d="M685.21,982.44h-.87a1.45,1.45,0,1,1,0-2.9h.87a1.45,1.45,0,0,1,0,2.9Z"/><path class="cls-2" d="M702,982.44h-8.41a1.45,1.45,0,0,1,0-2.9H702a1.45,1.45,0,0,1,0,2.9Z"/><path class="cls-2" d="M759.45,982.44h-49a1.45,1.45,0,0,1,0-2.9h49a1.45,1.45,0,0,1,0,2.9Z"/><path class="cls-2" d="M675.93,1011.44H638.81a1.45,1.45,0,1,1,0-2.9h37.12a1.45,1.45,0,1,1,0,2.9Z"/><path class="cls-2" d="M695.65,1011.44H684.79a1.45,1.45,0,1,1,0-2.9h10.86a1.45,1.45,0,0,1,0,2.9Z"/><path class="cls-2" d="M741.18,1011.44H704.64a1.45,1.45,0,1,1,0-2.9h36.54a1.45,1.45,0,1,1,0,2.9Z"/><path class="cls-2" d="M759.45,1011.44h-9.86a1.45,1.45,0,1,1,0-2.9h9.86a1.45,1.45,0,0,1,0,2.9Z"/><path class="cls-2" d="M759.16,996.94H722.62a1.45,1.45,0,0,1,0-2.9h36.54a1.45,1.45,0,1,1,0,2.9Z"/><path class="cls-2" d="M713.92,996.94h-.87a1.45,1.45,0,1,1,0-2.9h.87a1.45,1.45,0,0,1,0,2.9Z"/><path class="cls-2" d="M704.64,996.94h-8.41a1.45,1.45,0,0,1,0-2.9h8.41a1.45,1.45,0,1,1,0,2.9Z"/><path class="cls-2" d="M687.82,996.94h-49a1.45,1.45,0,1,1,0-2.9h49a1.45,1.45,0,0,1,0,2.9Z"/><path class="cls-2" d="M760,1025.36H722.91a1.45,1.45,0,0,1,0-2.9H760a1.45,1.45,0,1,1,0,2.9Z"/><path class="cls-2" d="M714.05,1025.36H703.19a1.45,1.45,0,0,1,0-2.9h10.86a1.45,1.45,0,1,1,0,2.9Z"/><path class="cls-2" d="M694.2,1025.36H657.66a1.45,1.45,0,0,1,0-2.9H694.2a1.45,1.45,0,0,1,0,2.9Z"/><path class="cls-2" d="M649.25,1025.36h-9.86a1.45,1.45,0,0,1,0-2.9h9.86a1.45,1.45,0,1,1,0,2.9Z"/><path class="cls-2" d="M609.66,607.74v449.52h-183V607.74h183m2.63-1.74H424v453H612.29V606Z"/><path class="cls-2" d="M592.78,630.36H571.26a1.45,1.45,0,0,1,0-2.9h21.52a1.45,1.45,0,1,1,0,2.9Z"/><path class="cls-2" d="M560.51,630.36H539a1.45,1.45,0,1,1,0-2.9h21.52a1.45,1.45,0,1,1,0,2.9Z"/><path class="cls-2" d="M528.23,630.36H506.72a1.45,1.45,0,1,1,0-2.9h21.51a1.45,1.45,0,1,1,0,2.9Z"/><path class="cls-2" d="M592.78,644.86H571.26a1.45,1.45,0,1,1,0-2.9h21.52a1.45,1.45,0,1,1,0,2.9Z"/><path class="cls-2" d="M560.51,644.86H539a1.45,1.45,0,1,1,0-2.9h21.52a1.45,1.45,0,1,1,0,2.9Z"/><path class="cls-2" d="M528.23,644.86H506.72a1.45,1.45,0,1,1,0-2.9h21.51a1.45,1.45,0,1,1,0,2.9Z"/><path class="cls-2" d="M592.78,659.36H571.26a1.45,1.45,0,1,1,0-2.9h21.52a1.45,1.45,0,1,1,0,2.9Z"/><path class="cls-2" d="M560.51,659.36H539a1.45,1.45,0,1,1,0-2.9h21.52a1.45,1.45,0,1,1,0,2.9Z"/><path class="cls-2" d="M528.23,659.36H506.72a1.45,1.45,0,1,1,0-2.9h21.51a1.45,1.45,0,1,1,0,2.9Z"/><path class="cls-2" d="M592.78,673.86H571.26a1.45,1.45,0,1,1,0-2.9h21.52a1.45,1.45,0,1,1,0,2.9Z"/><path class="cls-2" d="M560.51,673.86H539a1.45,1.45,0,1,1,0-2.9h21.52a1.45,1.45,0,1,1,0,2.9Z"/><path class="cls-2" d="M528.23,673.86H506.72a1.45,1.45,0,1,1,0-2.9h21.51a1.45,1.45,0,1,1,0,2.9Z"/><path class="cls-2" d="M592.78,688.36H571.26a1.45,1.45,0,1,1,0-2.9h21.52a1.45,1.45,0,1,1,0,2.9Z"/><path class="cls-2" d="M560.51,688.36H539a1.45,1.45,0,1,1,0-2.9h21.52a1.45,1.45,0,1,1,0,2.9Z"/><path class="cls-2" d="M528.23,688.36H506.72a1.45,1.45,0,1,1,0-2.9h21.51a1.45,1.45,0,1,1,0,2.9Z"/><path class="cls-2" d="M592.78,702.86H571.26a1.45,1.45,0,1,1,0-2.9h21.52a1.45,1.45,0,1,1,0,2.9Z"/><path class="cls-2" d="M560.51,702.86H539a1.45,1.45,0,1,1,0-2.9h21.52a1.45,1.45,0,1,1,0,2.9Z"/><path class="cls-2" d="M528.23,702.86H506.72a1.45,1.45,0,1,1,0-2.9h21.51a1.45,1.45,0,1,1,0,2.9Z"/><path class="cls-2" d="M592.78,717.36H571.26a1.45,1.45,0,1,1,0-2.9h21.52a1.45,1.45,0,1,1,0,2.9Z"/><path class="cls-2" d="M560.51,717.36H539a1.45,1.45,0,1,1,0-2.9h21.52a1.45,1.45,0,1,1,0,2.9Z"/><path class="cls-2" d="M528.23,717.36H506.72a1.45,1.45,0,1,1,0-2.9h21.51a1.45,1.45,0,1,1,0,2.9Z"/><path class="cls-2" d="M592.78,731.87H571.26a1.45,1.45,0,1,1,0-2.9h21.52a1.45,1.45,0,1,1,0,2.9Z"/><path class="cls-2" d="M560.51,731.87H539a1.45,1.45,0,1,1,0-2.9h21.52a1.45,1.45,0,1,1,0,2.9Z"/><path class="cls-2" d="M528.23,731.87H506.72a1.45,1.45,0,1,1,0-2.9h21.51a1.45,1.45,0,1,1,0,2.9Z"/><path class="cls-2" d="M592.78,746.37H571.26a1.45,1.45,0,1,1,0-2.9h21.52a1.45,1.45,0,1,1,0,2.9Z"/><path class="cls-2" d="M560.51,746.37H539a1.45,1.45,0,1,1,0-2.9h21.52a1.45,1.45,0,1,1,0,2.9Z"/><path class="cls-2" d="M528.23,746.37H506.72a1.45,1.45,0,1,1,0-2.9h21.51a1.45,1.45,0,1,1,0,2.9Z"/><path class="cls-2" d="M592.78,760.87H571.26a1.45,1.45,0,1,1,0-2.9h21.52a1.45,1.45,0,1,1,0,2.9Z"/><path class="cls-2" d="M560.51,760.87H539a1.45,1.45,0,1,1,0-2.9h21.52a1.45,1.45,0,1,1,0,2.9Z"/><path class="cls-2" d="M528.23,760.87H506.72a1.45,1.45,0,1,1,0-2.9h21.51a1.45,1.45,0,1,1,0,2.9Z"/><path class="cls-2" d="M592.78,775.37H571.26a1.45,1.45,0,1,1,0-2.9h21.52a1.45,1.45,0,1,1,0,2.9Z"/><path class="cls-2" d="M560.51,775.37H539a1.45,1.45,0,1,1,0-2.9h21.52a1.45,1.45,0,1,1,0,2.9Z"/><path class="cls-2" d="M528.23,775.37H506.72a1.45,1.45,0,0,1,0-2.9h21.51a1.45,1.45,0,1,1,0,2.9Z"/><path class="cls-2" d="M592.78,789.87H571.26a1.45,1.45,0,1,1,0-2.9h21.52a1.45,1.45,0,1,1,0,2.9Z"/><path class="cls-2" d="M560.51,789.87H539a1.45,1.45,0,1,1,0-2.9h21.52a1.45,1.45,0,1,1,0,2.9Z"/><path class="cls-2" d="M528.23,789.87H506.72a1.45,1.45,0,0,1,0-2.9h21.51a1.45,1.45,0,0,1,0,2.9Z"/><path class="cls-2" d="M592.78,804.37H571.26a1.45,1.45,0,1,1,0-2.9h21.52a1.45,1.45,0,1,1,0,2.9Z"/><path class="cls-2" d="M560.51,804.37H539a1.45,1.45,0,0,1,0-2.9h21.52a1.45,1.45,0,1,1,0,2.9Z"/><path class="cls-2" d="M528.23,804.37H506.72a1.45,1.45,0,0,1,0-2.9h21.51a1.45,1.45,0,0,1,0,2.9Z"/><path class="cls-2" d="M592.78,818.87H571.26a1.45,1.45,0,1,1,0-2.9h21.52a1.45,1.45,0,1,1,0,2.9Z"/><path class="cls-2" d="M560.51,818.87H539a1.45,1.45,0,0,1,0-2.9h21.52a1.45,1.45,0,1,1,0,2.9Z"/><path class="cls-2" d="M528.23,818.87H506.72a1.45,1.45,0,0,1,0-2.9h21.51a1.45,1.45,0,0,1,0,2.9Z"/><path class="cls-2" d="M592.78,833.37H571.26a1.45,1.45,0,0,1,0-2.9h21.52a1.45,1.45,0,1,1,0,2.9Z"/><path class="cls-2" d="M560.51,833.37H539a1.45,1.45,0,0,1,0-2.9h21.52a1.45,1.45,0,1,1,0,2.9Z"/><path class="cls-2" d="M528.23,833.37H506.72a1.45,1.45,0,0,1,0-2.9h21.51a1.45,1.45,0,0,1,0,2.9Z"/><path class="cls-2" d="M592.78,847.87H571.26a1.45,1.45,0,0,1,0-2.9h21.52a1.45,1.45,0,1,1,0,2.9Z"/><path class="cls-2" d="M560.51,847.87H539a1.45,1.45,0,0,1,0-2.9h21.52a1.45,1.45,0,1,1,0,2.9Z"/><path class="cls-2" d="M528.23,847.87H506.72a1.45,1.45,0,0,1,0-2.9h21.51a1.45,1.45,0,0,1,0,2.9Z"/><path class="cls-2" d="M592.78,862.37H571.26a1.45,1.45,0,0,1,0-2.9h21.52a1.45,1.45,0,1,1,0,2.9Z"/><path class="cls-2" d="M560.51,862.37H539a1.45,1.45,0,0,1,0-2.9h21.52a1.45,1.45,0,1,1,0,2.9Z"/><path class="cls-2" d="M528.23,862.37H506.72a1.45,1.45,0,0,1,0-2.9h21.51a1.45,1.45,0,0,1,0,2.9Z"/><path class="cls-2" d="M592.78,876.87H571.26a1.45,1.45,0,0,1,0-2.9h21.52a1.45,1.45,0,1,1,0,2.9Z"/><path class="cls-2" d="M560.51,876.87H539a1.45,1.45,0,0,1,0-2.9h21.52a1.45,1.45,0,1,1,0,2.9Z"/><path class="cls-2" d="M528.23,876.87H506.72a1.45,1.45,0,0,1,0-2.9h21.51a1.45,1.45,0,0,1,0,2.9Z"/><path class="cls-2" d="M592.78,891.37H571.26a1.45,1.45,0,0,1,0-2.9h21.52a1.45,1.45,0,1,1,0,2.9Z"/><path class="cls-2" d="M560.51,891.37H539a1.45,1.45,0,0,1,0-2.9h21.52a1.45,1.45,0,1,1,0,2.9Z"/><path class="cls-2" d="M528.23,891.37H506.72a1.45,1.45,0,0,1,0-2.9h21.51a1.45,1.45,0,0,1,0,2.9Z"/><path class="cls-2" d="M592.78,905.87H571.26a1.45,1.45,0,0,1,0-2.9h21.52a1.45,1.45,0,1,1,0,2.9Z"/><path class="cls-2" d="M560.51,905.87H539a1.45,1.45,0,0,1,0-2.9h21.52a1.45,1.45,0,1,1,0,2.9Z"/><path class="cls-2" d="M528.23,905.87H506.72a1.45,1.45,0,0,1,0-2.9h21.51a1.45,1.45,0,0,1,0,2.9Z"/><path class="cls-2" d="M592.78,920.37H571.26a1.45,1.45,0,0,1,0-2.9h21.52a1.45,1.45,0,1,1,0,2.9Z"/><path class="cls-2" d="M560.51,920.37H539a1.45,1.45,0,0,1,0-2.9h21.52a1.45,1.45,0,1,1,0,2.9Z"/><path class="cls-2" d="M528.23,920.37H506.72a1.45,1.45,0,0,1,0-2.9h21.51a1.45,1.45,0,0,1,0,2.9Z"/><path class="cls-2" d="M592.78,934.87H571.26a1.45,1.45,0,0,1,0-2.9h21.52a1.45,1.45,0,1,1,0,2.9Z"/><path class="cls-2" d="M560.51,934.87H539a1.45,1.45,0,0,1,0-2.9h21.52a1.45,1.45,0,1,1,0,2.9Z"/><path class="cls-2" d="M528.23,934.87H506.72a1.45,1.45,0,0,1,0-2.9h21.51a1.45,1.45,0,0,1,0,2.9Z"/><path class="cls-2" d="M592.78,949.38H571.26a1.45,1.45,0,0,1,0-2.9h21.52a1.45,1.45,0,1,1,0,2.9Z"/><path class="cls-2" d="M560.51,949.38H539a1.45,1.45,0,0,1,0-2.9h21.52a1.45,1.45,0,1,1,0,2.9Z"/><path class="cls-2" d="M528.23,949.38H506.72a1.45,1.45,0,0,1,0-2.9h21.51a1.45,1.45,0,0,1,0,2.9Z"/><path class="cls-2" d="M592.78,963.88H571.26a1.45,1.45,0,0,1,0-2.9h21.52a1.45,1.45,0,1,1,0,2.9Z"/><path class="cls-2" d="M560.51,963.88H539a1.45,1.45,0,0,1,0-2.9h21.52a1.45,1.45,0,1,1,0,2.9Z"/><path class="cls-2" d="M528.23,963.88H506.72a1.45,1.45,0,0,1,0-2.9h21.51a1.45,1.45,0,0,1,0,2.9Z"/><path class="cls-2" d="M592.78,978.38H571.26a1.45,1.45,0,0,1,0-2.9h21.52a1.45,1.45,0,1,1,0,2.9Z"/><path class="cls-2" d="M560.51,978.38H539a1.45,1.45,0,0,1,0-2.9h21.52a1.45,1.45,0,1,1,0,2.9Z"/><path class="cls-2" d="M528.23,978.38H506.72a1.45,1.45,0,0,1,0-2.9h21.51a1.45,1.45,0,0,1,0,2.9Z"/><path class="cls-2" d="M592.78,992.88H571.26a1.45,1.45,0,0,1,0-2.9h21.52a1.45,1.45,0,1,1,0,2.9Z"/><path class="cls-2" d="M560.51,992.88H539a1.45,1.45,0,0,1,0-2.9h21.52a1.45,1.45,0,1,1,0,2.9Z"/><path class="cls-2" d="M528.23,992.88H506.72a1.45,1.45,0,0,1,0-2.9h21.51a1.45,1.45,0,0,1,0,2.9Z"/><path class="cls-2" d="M592.78,1007.38H571.26a1.45,1.45,0,0,1,0-2.9h21.52a1.45,1.45,0,1,1,0,2.9Z"/><path class="cls-2" d="M560.51,1007.38H539a1.45,1.45,0,0,1,0-2.9h21.52a1.45,1.45,0,1,1,0,2.9Z"/><path class="cls-2" d="M528.23,1007.38H506.72a1.45,1.45,0,0,1,0-2.9h21.51a1.45,1.45,0,0,1,0,2.9Z"/><path class="cls-2" d="M494.51,630.36H473a1.45,1.45,0,1,1,0-2.9h21.52a1.45,1.45,0,1,1,0,2.9Z"/><path class="cls-2" d="M462.23,630.36H440.72a1.45,1.45,0,1,1,0-2.9h21.51a1.45,1.45,0,1,1,0,2.9Z"/><path class="cls-2" d="M494.51,644.86H473a1.45,1.45,0,1,1,0-2.9h21.52a1.45,1.45,0,1,1,0,2.9Z"/><path class="cls-2" d="M462.23,644.86H440.72a1.45,1.45,0,1,1,0-2.9h21.51a1.45,1.45,0,1,1,0,2.9Z"/><path class="cls-2" d="M494.51,659.36H473a1.45,1.45,0,1,1,0-2.9h21.52a1.45,1.45,0,1,1,0,2.9Z"/><path class="cls-2" d="M462.23,659.36H440.72a1.45,1.45,0,1,1,0-2.9h21.51a1.45,1.45,0,1,1,0,2.9Z"/><path class="cls-2" d="M494.51,673.86H473a1.45,1.45,0,1,1,0-2.9h21.52a1.45,1.45,0,1,1,0,2.9Z"/><path class="cls-2" d="M462.23,673.86H440.72a1.45,1.45,0,1,1,0-2.9h21.51a1.45,1.45,0,1,1,0,2.9Z"/><path class="cls-2" d="M494.51,688.36H473a1.45,1.45,0,1,1,0-2.9h21.52a1.45,1.45,0,1,1,0,2.9Z"/><path class="cls-2" d="M462.23,688.36H440.72a1.45,1.45,0,1,1,0-2.9h21.51a1.45,1.45,0,1,1,0,2.9Z"/><path class="cls-2" d="M494.51,702.86H473a1.45,1.45,0,1,1,0-2.9h21.52a1.45,1.45,0,1,1,0,2.9Z"/><path class="cls-2" d="M462.23,702.86H440.72a1.45,1.45,0,0,1,0-2.9h21.51a1.45,1.45,0,1,1,0,2.9Z"/><path class="cls-2" d="M494.51,717.36H473a1.45,1.45,0,1,1,0-2.9h21.52a1.45,1.45,0,1,1,0,2.9Z"/><path class="cls-2" d="M462.23,717.36H440.72a1.45,1.45,0,0,1,0-2.9h21.51a1.45,1.45,0,1,1,0,2.9Z"/><path class="cls-2" d="M494.51,731.87H473a1.45,1.45,0,1,1,0-2.9h21.52a1.45,1.45,0,1,1,0,2.9Z"/><path class="cls-2" d="M462.23,731.87H440.72a1.45,1.45,0,0,1,0-2.9h21.51a1.45,1.45,0,1,1,0,2.9Z"/><path class="cls-2" d="M494.51,746.37H473a1.45,1.45,0,1,1,0-2.9h21.52a1.45,1.45,0,1,1,0,2.9Z"/><path class="cls-2" d="M462.23,746.37H440.72a1.45,1.45,0,0,1,0-2.9h21.51a1.45,1.45,0,1,1,0,2.9Z"/><path class="cls-2" d="M494.51,760.87H473a1.45,1.45,0,1,1,0-2.9h21.52a1.45,1.45,0,1,1,0,2.9Z"/><path class="cls-2" d="M462.23,760.87H440.72a1.45,1.45,0,0,1,0-2.9h21.51a1.45,1.45,0,1,1,0,2.9Z"/><path class="cls-2" d="M494.51,775.37H473a1.45,1.45,0,1,1,0-2.9h21.52a1.45,1.45,0,1,1,0,2.9Z"/><path class="cls-2" d="M462.23,775.37H440.72a1.45,1.45,0,0,1,0-2.9h21.51a1.45,1.45,0,1,1,0,2.9Z"/><path class="cls-2" d="M494.51,789.87H473a1.45,1.45,0,1,1,0-2.9h21.52a1.45,1.45,0,1,1,0,2.9Z"/><path class="cls-2" d="M462.23,789.87H440.72a1.45,1.45,0,0,1,0-2.9h21.51a1.45,1.45,0,1,1,0,2.9Z"/><path class="cls-2" d="M494.51,804.37H473a1.45,1.45,0,1,1,0-2.9h21.52a1.45,1.45,0,1,1,0,2.9Z"/><path class="cls-2" d="M462.23,804.37H440.72a1.45,1.45,0,0,1,0-2.9h21.51a1.45,1.45,0,1,1,0,2.9Z"/><path class="cls-2" d="M494.51,818.87H473a1.45,1.45,0,1,1,0-2.9h21.52a1.45,1.45,0,1,1,0,2.9Z"/><path class="cls-2" d="M462.23,818.87H440.72a1.45,1.45,0,0,1,0-2.9h21.51a1.45,1.45,0,1,1,0,2.9Z"/><path class="cls-2" d="M494.51,833.37H473a1.45,1.45,0,1,1,0-2.9h21.52a1.45,1.45,0,1,1,0,2.9Z"/><path class="cls-2" d="M462.23,833.37H440.72a1.45,1.45,0,0,1,0-2.9h21.51a1.45,1.45,0,1,1,0,2.9Z"/><path class="cls-2" d="M494.51,847.87H473a1.45,1.45,0,1,1,0-2.9h21.52a1.45,1.45,0,1,1,0,2.9Z"/><path class="cls-2" d="M462.23,847.87H440.72a1.45,1.45,0,0,1,0-2.9h21.51a1.45,1.45,0,1,1,0,2.9Z"/><path class="cls-2" d="M494.51,862.37H473a1.45,1.45,0,1,1,0-2.9h21.52a1.45,1.45,0,1,1,0,2.9Z"/><path class="cls-2" d="M462.23,862.37H440.72a1.45,1.45,0,0,1,0-2.9h21.51a1.45,1.45,0,1,1,0,2.9Z"/><path class="cls-2" d="M494.51,876.87H473a1.45,1.45,0,1,1,0-2.9h21.52a1.45,1.45,0,1,1,0,2.9Z"/><path class="cls-2" d="M462.23,876.87H440.72a1.45,1.45,0,0,1,0-2.9h21.51a1.45,1.45,0,1,1,0,2.9Z"/><path class="cls-2" d="M494.51,891.37H473a1.45,1.45,0,1,1,0-2.9h21.52a1.45,1.45,0,1,1,0,2.9Z"/><path class="cls-2" d="M462.23,891.37H440.72a1.45,1.45,0,0,1,0-2.9h21.51a1.45,1.45,0,1,1,0,2.9Z"/><path class="cls-2" d="M494.51,905.87H473a1.45,1.45,0,1,1,0-2.9h21.52a1.45,1.45,0,1,1,0,2.9Z"/><path class="cls-2" d="M462.23,905.87H440.72a1.45,1.45,0,0,1,0-2.9h21.51a1.45,1.45,0,1,1,0,2.9Z"/><path class="cls-2" d="M494.51,920.37H473a1.45,1.45,0,1,1,0-2.9h21.52a1.45,1.45,0,1,1,0,2.9Z"/><path class="cls-2" d="M462.23,920.37H440.72a1.45,1.45,0,0,1,0-2.9h21.51a1.45,1.45,0,1,1,0,2.9Z"/><path class="cls-2" d="M494.51,934.87H473a1.45,1.45,0,1,1,0-2.9h21.52a1.45,1.45,0,1,1,0,2.9Z"/><path class="cls-2" d="M462.23,934.87H440.72a1.45,1.45,0,0,1,0-2.9h21.51a1.45,1.45,0,1,1,0,2.9Z"/><path class="cls-2" d="M494.51,949.38H473a1.45,1.45,0,1,1,0-2.9h21.52a1.45,1.45,0,1,1,0,2.9Z"/><path class="cls-2" d="M462.23,949.38H440.72a1.45,1.45,0,0,1,0-2.9h21.51a1.45,1.45,0,1,1,0,2.9Z"/><path class="cls-2" d="M494.51,963.88H473a1.45,1.45,0,1,1,0-2.9h21.52a1.45,1.45,0,1,1,0,2.9Z"/><path class="cls-2" d="M462.23,963.88H440.72a1.45,1.45,0,1,1,0-2.9h21.51a1.45,1.45,0,1,1,0,2.9Z"/><path class="cls-2" d="M494.51,978.38H473a1.45,1.45,0,1,1,0-2.9h21.52a1.45,1.45,0,1,1,0,2.9Z"/><path class="cls-2" d="M462.23,978.38H440.72a1.45,1.45,0,1,1,0-2.9h21.51a1.45,1.45,0,0,1,0,2.9Z"/><path class="cls-2" d="M494.51,992.88H473a1.45,1.45,0,0,1,0-2.9h21.52a1.45,1.45,0,1,1,0,2.9Z"/><path class="cls-2" d="M462.23,992.88H440.72a1.45,1.45,0,1,1,0-2.9h21.51a1.45,1.45,0,0,1,0,2.9Z"/><path class="cls-2" d="M494.51,1007.38H473a1.45,1.45,0,0,1,0-2.9h21.52a1.45,1.45,0,1,1,0,2.9Z"/><path class="cls-2" d="M462.23,1007.38H440.72a1.45,1.45,0,1,1,0-2.9h21.51a1.45,1.45,0,0,1,0,2.9Z"/><rect class="cls-1" x="242.97" y="888.11" width="70.92" height="268.31" transform="translate(-743.83 1300.7) rotate(-90)"/><path class="cls-2" d="M413.87,985.52V1059H143V985.52Zm-2.56,70.92V988.08H145.56v68.36Z"/><path class="cls-2" d="M193.69,1009a1.71,1.71,0,0,1-1.71,1.71H159.24a1.71,1.71,0,1,1,0-3.42H192A1.71,1.71,0,0,1,193.69,1009Z"/><path class="cls-2" d="M193.69,1037.22a1.71,1.71,0,0,1-1.71,1.71H159.24a1.71,1.71,0,1,1,0-3.42H192A1.7,1.7,0,0,1,193.69,1037.22Z"/><path class="cls-2" d="M245.15,1008.59a1.7,1.7,0,0,1-1.71,1.71H210.7a1.71,1.71,0,0,1,0-3.42h32.74A1.71,1.71,0,0,1,245.15,1008.59Z"/><path class="cls-2" d="M245.15,1036.79a1.71,1.71,0,0,1-1.71,1.71H210.7a1.71,1.71,0,1,1,0-3.42h32.74A1.71,1.71,0,0,1,245.15,1036.79Z"/><path class="cls-2" d="M296.62,1008.17a1.71,1.71,0,0,1-1.71,1.7H262.16a1.71,1.71,0,1,1,0-3.41h32.75A1.71,1.71,0,0,1,296.62,1008.17Z"/><path class="cls-2" d="M296.62,1036.36a1.71,1.71,0,0,1-1.71,1.71H262.16a1.71,1.71,0,0,1,0-3.42h32.75A1.72,1.72,0,0,1,296.62,1036.36Z"/><path class="cls-2" d="M348.08,1007.74a1.72,1.72,0,0,1-1.71,1.71H313.62a1.71,1.71,0,1,1,0-3.42h32.75A1.71,1.71,0,0,1,348.08,1007.74Z"/><path class="cls-2" d="M348.08,1035.94a1.72,1.72,0,0,1-1.71,1.71H313.62a1.71,1.71,0,1,1,0-3.42h32.75A1.71,1.71,0,0,1,348.08,1035.94Z"/><path class="cls-2" d="M400.2,1007.74a1.72,1.72,0,0,1-1.71,1.71H365.74a1.71,1.71,0,0,1,0-3.42h32.75A1.71,1.71,0,0,1,400.2,1007.74Z"/><path class="cls-2" d="M400.2,1035.94a1.72,1.72,0,0,1-1.71,1.71H365.74a1.71,1.71,0,0,1,0-3.42h32.75A1.71,1.71,0,0,1,400.2,1035.94Z"/><path class="cls-2" d="M362,987H175.29V902.87h20.47L362,852.1Zm-184.83-1.87h183V854.63L196,904.74H177.17Z"/><rect class="cls-1" x="337.58" y="804" width="48.14" height="182.13"/><path class="cls-2" d="M386.6,987H336.71V803.13H386.6Zm-48.15-1.74h46.41V804.87H338.45Z"/><path class="cls-2" d="M370.64,836.54a1.16,1.16,0,0,1-1.16-1.16V813.15a1.16,1.16,0,0,1,2.32,0v22.23A1.15,1.15,0,0,1,370.64,836.54Z"/><path class="cls-2" d="M351.5,836.54a1.16,1.16,0,0,1-1.16-1.16V813.15a1.16,1.16,0,0,1,2.32,0v22.23A1.16,1.16,0,0,1,351.5,836.54Z"/><path class="cls-2" d="M370.93,871.47a1.16,1.16,0,0,1-1.16-1.16V848.08a1.16,1.16,0,1,1,2.32,0v22.23A1.15,1.15,0,0,1,370.93,871.47Z"/><path class="cls-2" d="M351.79,871.47a1.16,1.16,0,0,1-1.16-1.16V848.08a1.16,1.16,0,1,1,2.32,0v22.23A1.16,1.16,0,0,1,351.79,871.47Z"/><path class="cls-2" d="M371.22,906.41a1.16,1.16,0,0,1-1.16-1.16V883a1.16,1.16,0,1,1,2.32,0v22.23A1.15,1.15,0,0,1,371.22,906.41Z"/><path class="cls-2" d="M352.08,906.41a1.16,1.16,0,0,1-1.16-1.16V883a1.16,1.16,0,0,1,2.32,0v22.23A1.16,1.16,0,0,1,352.08,906.41Z"/><path class="cls-2" d="M371.51,941.34a1.16,1.16,0,0,1-1.16-1.16V918a1.16,1.16,0,1,1,2.32,0v22.23A1.15,1.15,0,0,1,371.51,941.34Z"/><path class="cls-2" d="M352.37,941.34a1.16,1.16,0,0,1-1.16-1.16V918a1.16,1.16,0,1,1,2.32,0v22.23A1.16,1.16,0,0,1,352.37,941.34Z"/><path class="cls-2" d="M371.51,976.72a1.16,1.16,0,0,1-1.16-1.16V953.33a1.16,1.16,0,1,1,2.32,0v22.23A1.15,1.15,0,0,1,371.51,976.72Z"/><path class="cls-2" d="M352.37,976.72a1.16,1.16,0,0,1-1.16-1.16V953.33a1.16,1.16,0,1,1,2.32,0v22.23A1.16,1.16,0,0,1,352.37,976.72Z"/><path class="cls-2" d="M238.47,987H212V927.43a13.23,13.23,0,0,1,26.45,0Zm-24.7-1.74h23V927.43a11.48,11.48,0,0,0-23,0Z"/><path class="cls-2" d="M273.47,987H247V927.43a13.23,13.23,0,0,1,26.45,0Zm-24.7-1.74h23V927.43a11.48,11.48,0,0,0-23,0Z"/><path class="cls-2" d="M308.47,987H282V927.43a13.23,13.23,0,0,1,26.45,0Zm-24.7-1.74h23V927.43a11.48,11.48,0,0,0-23,0Z"/><rect class="cls-1" x="38.67" y="705.68" width="92.26" height="351.64"/><path class="cls-2" d="M132.6,1059H37V704h95.6Zm-92.27-3.36h88.93V707.36H40.33Z"/><path class="cls-2" d="M111.51,731.36H90a1.45,1.45,0,0,1,0-2.9h21.52a1.45,1.45,0,0,1,0,2.9Z"/><path class="cls-2" d="M79.23,731.36H57.72a1.45,1.45,0,0,1,0-2.9H79.23a1.45,1.45,0,1,1,0,2.9Z"/><path class="cls-2" d="M111.51,745.86H90a1.45,1.45,0,0,1,0-2.9h21.52a1.45,1.45,0,0,1,0,2.9Z"/><path class="cls-2" d="M79.23,745.86H57.72a1.45,1.45,0,0,1,0-2.9H79.23a1.45,1.45,0,1,1,0,2.9Z"/><path class="cls-2" d="M111.51,760.36H90a1.45,1.45,0,0,1,0-2.9h21.52a1.45,1.45,0,0,1,0,2.9Z"/><path class="cls-2" d="M79.23,760.36H57.72a1.45,1.45,0,0,1,0-2.9H79.23a1.45,1.45,0,1,1,0,2.9Z"/><path class="cls-2" d="M111.51,774.86H90a1.45,1.45,0,0,1,0-2.9h21.52a1.45,1.45,0,0,1,0,2.9Z"/><path class="cls-2" d="M79.23,774.86H57.72a1.45,1.45,0,0,1,0-2.9H79.23a1.45,1.45,0,1,1,0,2.9Z"/><path class="cls-2" d="M111.51,789.36H90a1.45,1.45,0,0,1,0-2.9h21.52a1.45,1.45,0,0,1,0,2.9Z"/><path class="cls-2" d="M79.23,789.36H57.72a1.45,1.45,0,0,1,0-2.9H79.23a1.45,1.45,0,1,1,0,2.9Z"/><path class="cls-2" d="M111.51,803.86H90a1.45,1.45,0,0,1,0-2.9h21.52a1.45,1.45,0,0,1,0,2.9Z"/><path class="cls-2" d="M79.23,803.86H57.72a1.45,1.45,0,0,1,0-2.9H79.23a1.45,1.45,0,1,1,0,2.9Z"/><path class="cls-2" d="M111.51,818.36H90a1.45,1.45,0,0,1,0-2.9h21.52a1.45,1.45,0,0,1,0,2.9Z"/><path class="cls-2" d="M79.23,818.36H57.72a1.45,1.45,0,0,1,0-2.9H79.23a1.45,1.45,0,1,1,0,2.9Z"/><path class="cls-2" d="M111.51,832.87H90a1.45,1.45,0,0,1,0-2.9h21.52a1.45,1.45,0,0,1,0,2.9Z"/><path class="cls-2" d="M79.23,832.87H57.72a1.45,1.45,0,0,1,0-2.9H79.23a1.45,1.45,0,1,1,0,2.9Z"/><path class="cls-2" d="M111.51,847.37H90a1.45,1.45,0,0,1,0-2.9h21.52a1.45,1.45,0,0,1,0,2.9Z"/><path class="cls-2" d="M79.23,847.37H57.72a1.45,1.45,0,0,1,0-2.9H79.23a1.45,1.45,0,1,1,0,2.9Z"/><path class="cls-2" d="M111.51,861.87H90a1.45,1.45,0,0,1,0-2.9h21.52a1.45,1.45,0,0,1,0,2.9Z"/><path class="cls-2" d="M79.23,861.87H57.72a1.45,1.45,0,0,1,0-2.9H79.23a1.45,1.45,0,1,1,0,2.9Z"/><path class="cls-2" d="M111.51,876.37H90a1.45,1.45,0,0,1,0-2.9h21.52a1.45,1.45,0,0,1,0,2.9Z"/><path class="cls-2" d="M79.23,876.37H57.72a1.45,1.45,0,0,1,0-2.9H79.23a1.45,1.45,0,1,1,0,2.9Z"/><path class="cls-2" d="M111.51,890.87H90a1.45,1.45,0,0,1,0-2.9h21.52a1.45,1.45,0,0,1,0,2.9Z"/><path class="cls-2" d="M79.23,890.87H57.72a1.45,1.45,0,0,1,0-2.9H79.23a1.45,1.45,0,1,1,0,2.9Z"/><path class="cls-2" d="M111.51,905.37H90a1.45,1.45,0,0,1,0-2.9h21.52a1.45,1.45,0,0,1,0,2.9Z"/><path class="cls-2" d="M79.23,905.37H57.72a1.45,1.45,0,0,1,0-2.9H79.23a1.45,1.45,0,1,1,0,2.9Z"/><path class="cls-2" d="M111.51,919.87H90a1.45,1.45,0,0,1,0-2.9h21.52a1.45,1.45,0,0,1,0,2.9Z"/><path class="cls-2" d="M79.23,919.87H57.72a1.45,1.45,0,0,1,0-2.9H79.23a1.45,1.45,0,1,1,0,2.9Z"/><path class="cls-2" d="M111.51,934.37H90a1.45,1.45,0,0,1,0-2.9h21.52a1.45,1.45,0,0,1,0,2.9Z"/><path class="cls-2" d="M79.23,934.37H57.72a1.45,1.45,0,0,1,0-2.9H79.23a1.45,1.45,0,1,1,0,2.9Z"/><path class="cls-2" d="M111.51,948.87H90a1.45,1.45,0,0,1,0-2.9h21.52a1.45,1.45,0,0,1,0,2.9Z"/><path class="cls-2" d="M79.23,948.87H57.72a1.45,1.45,0,0,1,0-2.9H79.23a1.45,1.45,0,1,1,0,2.9Z"/><path class="cls-2" d="M111.51,963.37H90a1.45,1.45,0,0,1,0-2.9h21.52a1.45,1.45,0,0,1,0,2.9Z"/><path class="cls-2" d="M79.23,963.37H57.72a1.45,1.45,0,0,1,0-2.9H79.23a1.45,1.45,0,1,1,0,2.9Z"/><path class="cls-2" d="M111.51,977.87H90a1.45,1.45,0,0,1,0-2.9h21.52a1.45,1.45,0,0,1,0,2.9Z"/><path class="cls-2" d="M79.23,977.87H57.72a1.45,1.45,0,0,1,0-2.9H79.23a1.45,1.45,0,1,1,0,2.9Z"/><path class="cls-2" d="M111.51,992.37H90a1.45,1.45,0,0,1,0-2.9h21.52a1.45,1.45,0,0,1,0,2.9Z"/><path class="cls-2" d="M79.23,992.37H57.72a1.45,1.45,0,0,1,0-2.9H79.23a1.45,1.45,0,1,1,0,2.9Z"/><path class="cls-2" d="M111.51,1006.87H90a1.45,1.45,0,0,1,0-2.9h21.52a1.45,1.45,0,0,1,0,2.9Z"/><path class="cls-2" d="M79.23,1006.87H57.72a1.45,1.45,0,0,1,0-2.9H79.23a1.45,1.45,0,1,1,0,2.9Z"/></g></svg>