<svg xmlns="http://www.w3.org/2000/svg" viewBox="0 0 1920 1080"><defs><style>.cls-1{fill:#fff;}.cls-2{fill:#1cd16e;}</style></defs><title>BuildingsClose</title><g id="Layer_2" data-name="Layer 2"><rect class="cls-1" x="1490" y="981" width="401" height="77"/><rect class="cls-1" x="1552" y="965" width="279" height="17"/><rect class="cls-1" x="1569" y="950" width="244" height="27"/><rect class="cls-1" x="1457" y="942" width="15" height="116"/><rect class="cls-1" x="1378" y="973" width="92" height="84"/><polyline class="cls-1" points="1424 919.75 1379.5 975 1467.75 973.5 1424 919.75"/><polyline class="cls-1" points="1319 918.75 1274.5 974 1362.75 972.5 1319 918.75"/><rect class="cls-1" x="1272" y="942" width="14" height="116"/><rect class="cls-1" x="1272" y="974" width="94" height="84"/><rect class="cls-1" x="1005" y="958" width="256" height="100"/><rect class="cls-1" x="1017" y="940" width="232" height="17"/><polygon class="cls-1" points="913 987 913 975 905 975 888 948 871 975 865 975 865 987 785 1017 785 1029.67 785 1056 993 1056 993 1027.25 993 1017 913 987"/><rect class="cls-1" x="454" y="995" width="320" height="64"/><rect class="cls-1" x="455" y="960" width="155" height="38"/><polyline class="cls-1" points="442 993 264 961 264 1057 442 1057 442 993"/><rect class="cls-1" x="156" y="973" width="93" height="83"/><polyline class="cls-1" points="244.83 970 243 961 238 949 231 941 221 933 207 929 189.17 930.75 177.5 937.33 167.17 948.5 162.03 958.67 161 971 212 971 240 971 244.83 970"/><polyline class="cls-1" points="137 955 86 893 36 955 137 955"/><rect class="cls-1" x="30" y="957" width="110" height="99"/><rect class="cls-1" x="30" y="920" width="14" height="53"/></g><g id="Layer_1" data-name="Layer 1"><path class="cls-2" d="M1891.5,1058.5h-401v-79H1552V965h16V949h247v16h16v14.5h60.5Zm-398-3h395v-73H1828V968h-16V952H1571v16h-16v14.5h-61.5Z"/><path class="cls-2" d="M1473,1059h-96.5V972H1473Zm-93.5-3H1470V975h-90.5Z"/><path class="cls-2" d="M1471.68,975h-95.36L1424,917.14Zm-89-3h82.64L1424,921.86Z"/><path class="cls-2" d="M1425,1007a10,10,0,1,1,10-10A10,10,0,0,1,1425,1007Zm0-17a7,7,0,1,0,7,7A7,7,0,0,0,1425,990Z"/><path class="cls-2" d="M1435,1059h-20v-33h20Zm-17-3h14v-27h-14Z"/><path class="cls-2" d="M1398,1050a10,10,0,1,1,10-10A10,10,0,0,1,1398,1050Zm0-17a7,7,0,1,0,7,7A7,7,0,0,0,1398,1033Z"/><path class="cls-2" d="M1452,1050a10,10,0,1,1,10-10A10,10,0,0,1,1452,1050Zm0-17a7,7,0,1,0,7,7A7,7,0,0,0,1452,1033Z"/><polygon class="cls-2" points="1473 974.5 1470 974.5 1470 944 1459 944 1459 959.39 1456 959.39 1456 941 1473 941 1473 974.5"/><rect class="cls-2" x="1378" y="1014.13" width="93.5" height="3"/><path class="cls-2" d="M1462,1017h-20V984h20Zm-17-3h14V987h-14Z"/><path class="cls-2" d="M1398,1007a10,10,0,1,1,10-10A10,10,0,0,1,1398,1007Zm0-17a7,7,0,1,0,7,7A7,7,0,0,0,1398,990Z"/><path class="cls-2" d="M1367,1059h-96.5V972H1367Zm-93.5-3H1364V975h-90.5Z"/><path class="cls-2" d="M1367.18,975h-95.36l47.68-57.86Zm-89-3h82.64l-41.32-50.14Z"/><path class="cls-2" d="M1318.5,1007a10,10,0,1,1,10-10A10,10,0,0,1,1318.5,1007Zm0-17a7,7,0,1,0,7,7A7,7,0,0,0,1318.5,990Z"/><path class="cls-2" d="M1328.5,1059h-20v-33h20Zm-17-3h14v-27h-14Z"/><path class="cls-2" d="M1345.5,1050a10,10,0,1,1,10-10A10,10,0,0,1,1345.5,1050Zm0-17a7,7,0,1,0,7,7A7,7,0,0,0,1345.5,1033Z"/><path class="cls-2" d="M1291.5,1050a10,10,0,1,1,10-10A10,10,0,0,1,1291.5,1050Zm0-17a7,7,0,1,0,7,7A7,7,0,0,0,1291.5,1033Z"/><polygon class="cls-2" points="1273.5 974.5 1270.5 974.5 1270.5 941 1287.5 941 1287.5 959.39 1284.5 959.39 1284.5 944 1273.5 944 1273.5 974.5"/><rect class="cls-2" x="1272" y="1014.13" width="93.5" height="3"/><path class="cls-2" d="M1301.5,1017h-20V984h20Zm-17-3h14V987h-14Z"/><path class="cls-2" d="M1345.5,1007a10,10,0,1,1,10-10A10,10,0,0,1,1345.5,1007Zm0-17a7,7,0,1,0,7,7A7,7,0,0,0,1345.5,990Z"/><path class="cls-2" d="M252.2,1059H153.33V969.87H252.2Zm-95.87-3H249.2V972.87H156.33Z"/><path class="cls-2" d="M203,1005.68a10.22,10.22,0,1,1,10.22-10.21A10.22,10.22,0,0,1,203,1005.68Zm0-17.43a7.22,7.22,0,1,0,7.22,7.22A7.22,7.22,0,0,0,203,988.25Z"/><path class="cls-2" d="M213.24,1059H192.81v-33.76h20.43Zm-17.43-3h14.43v-27.76H195.81Z"/><path class="cls-2" d="M175.34,1049.77a10.22,10.22,0,1,1,10.21-10.21A10.22,10.22,0,0,1,175.34,1049.77Zm0-17.43a7.22,7.22,0,1,0,7.21,7.22A7.23,7.23,0,0,0,175.34,1032.34Z"/><path class="cls-2" d="M230.71,1049.77a10.22,10.22,0,1,1,10.21-10.21A10.22,10.22,0,0,1,230.71,1049.77Zm0-17.43a7.22,7.22,0,1,0,7.21,7.22A7.23,7.23,0,0,0,230.71,1032.34Z"/><rect class="cls-2" x="154.83" y="1013.06" width="95.87" height="3"/><path class="cls-2" d="M143.31,1059H27.5V954.65H143.31ZM30.5,1056H140.31V957.65H30.5Z"/><path class="cls-2" d="M143.18,957.65H29.44l56.87-69Zm-107.38-3h101L86.31,893.36Z"/><path class="cls-2" d="M85.1,996.26a11.76,11.76,0,1,1,11.76-11.75A11.76,11.76,0,0,1,85.1,996.26Zm0-20.51a8.76,8.76,0,1,0,8.76,8.76A8.77,8.77,0,0,0,85.1,975.75Z"/><path class="cls-2" d="M96.86,1059H73.35v-39.2H96.86Zm-20.51-3H93.86v-33.2H76.35Z"/><path class="cls-2" d="M117.68,1048.14a11.76,11.76,0,1,1,11.75-11.75A11.77,11.77,0,0,1,117.68,1048.14Zm0-20.51a8.76,8.76,0,1,0,8.75,8.76A8.77,8.77,0,0,0,117.68,1027.63Z"/><path class="cls-2" d="M52.53,1048.14a11.76,11.76,0,1,1,11.75-11.75A11.76,11.76,0,0,1,52.53,1048.14Zm0-20.51a8.76,8.76,0,1,0,8.75,8.76A8.77,8.77,0,0,0,52.53,1027.63Z"/><polygon class="cls-2" points="30.5 957.36 27.5 957.36 27.5 917.25 47.39 917.25 47.39 939.13 44.39 939.13 44.39 920.25 30.5 920.25 30.5 957.36"/><rect class="cls-2" x="29" y="1005.48" width="112.81" height="3"/><path class="cls-2" d="M64.28,1008.33H40.77v-39.2H64.28Zm-20.51-3H61.28v-33.2H43.77Z"/><path class="cls-2" d="M117.68,996.26a11.76,11.76,0,1,1,11.75-11.75A11.77,11.77,0,0,1,117.68,996.26Zm0-20.51a8.76,8.76,0,1,0,8.75,8.76A8.77,8.77,0,0,0,117.68,975.75Z"/><path class="cls-2" d="M246.5,973H159v-1.5a43.75,43.75,0,0,1,87.5,0ZM162,970h81.44A40.75,40.75,0,0,0,162,970Z"/><path class="cls-2" d="M1263,1059H1003V957h260Zm-257-3h254V960H1006Z"/><path class="cls-2" d="M1041,1005h-19V981.5a9.5,9.5,0,0,1,19,0Zm-16-3h13V981.5a6.5,6.5,0,0,0-13,0Z"/><path class="cls-2" d="M1070,1005h-19V981.5a9.5,9.5,0,0,1,19,0Zm-16-3h13V981.5a6.5,6.5,0,0,0-13,0Z"/><path class="cls-2" d="M1099,1005h-19V981.5a9.5,9.5,0,0,1,19,0Zm-16-3h13V981.5a6.5,6.5,0,0,0-13,0Z"/><path class="cls-2" d="M1128,1005h-19V981.5a9.5,9.5,0,0,1,19,0Zm-16-3h13V981.5a6.5,6.5,0,0,0-13,0Z"/><path class="cls-2" d="M1157,1005h-19V981.5a9.5,9.5,0,0,1,19,0Zm-16-3h13V981.5a6.5,6.5,0,0,0-13,0Z"/><path class="cls-2" d="M1186,1005h-19V981.5a9.5,9.5,0,0,1,19,0Zm-16-3h13V981.5a6.5,6.5,0,0,0-13,0Z"/><path class="cls-2" d="M1215,1005h-19V981.5a9.5,9.5,0,0,1,19,0Zm-16-3h13V981.5a6.5,6.5,0,0,0-13,0Z"/><path class="cls-2" d="M1244,1005h-19V981.5a9.5,9.5,0,0,1,19,0Zm-16-3h13V981.5a6.5,6.5,0,0,0-13,0Z"/><path class="cls-2" d="M1041,1044h-19v-23.5a9.5,9.5,0,0,1,19,0Zm-16-3h13v-20.5a6.5,6.5,0,0,0-13,0Z"/><path class="cls-2" d="M1070,1044h-19v-23.5a9.5,9.5,0,0,1,19,0Zm-16-3h13v-20.5a6.5,6.5,0,0,0-13,0Z"/><path class="cls-2" d="M1099,1044h-19v-23.5a9.5,9.5,0,0,1,19,0Zm-16-3h13v-20.5a6.5,6.5,0,0,0-13,0Z"/><path class="cls-2" d="M1128,1044h-19v-23.5a9.5,9.5,0,0,1,19,0Zm-16-3h13v-20.5a6.5,6.5,0,0,0-13,0Z"/><path class="cls-2" d="M1157,1044h-19v-23.5a9.5,9.5,0,0,1,19,0Zm-16-3h13v-20.5a6.5,6.5,0,0,0-13,0Z"/><path class="cls-2" d="M1186,1044h-19v-23.5a9.5,9.5,0,0,1,19,0Zm-16-3h13v-20.5a6.5,6.5,0,0,0-13,0Z"/><path class="cls-2" d="M1215,1044h-19v-23.5a9.5,9.5,0,0,1,19,0Zm-16-3h13v-20.5a6.5,6.5,0,0,0-13,0Z"/><path class="cls-2" d="M1244,1044h-19v-23.5a9.5,9.5,0,0,1,19,0Zm-16-3h13v-20.5a6.5,6.5,0,0,0-13,0Z"/><path class="cls-2" d="M1252,960H1014V937h238Zm-235-3h232V940H1017Z"/><path class="cls-2" d="M996,1059H782v-44.41l80-30.07V972h7.68l18.65-29.29L907,972h8v12.15l81,30.44Zm-211-3H993v-39.34L914.06,987H912V975h-6.65l-17-26.71-17,26.71H865v11.6l-80,30.06Z"/><path class="cls-2" d="M916,1059H858v-39h58Zm-55-3h52v-33H861Z"/><rect class="cls-2" x="885" y="1021.5" width="3" height="36"/><path class="cls-2" d="M1527,1016.24h-19V995.13c0-4.76,4.26-8.63,9.5-8.63s9.5,3.87,9.5,8.63Zm-16-3h13V995.13c0-3.1-2.92-5.63-6.5-5.63s-6.5,2.53-6.5,5.63Z"/><path class="cls-2" d="M1556,1016.24h-19V995.13c0-4.76,4.26-8.63,9.5-8.63s9.5,3.87,9.5,8.63Zm-16-3h13V995.13c0-3.1-2.92-5.63-6.5-5.63s-6.5,2.53-6.5,5.63Z"/><path class="cls-2" d="M1585,1016.24h-19V995.13c0-4.76,4.26-8.63,9.5-8.63s9.5,3.87,9.5,8.63Zm-16-3h13V995.13c0-3.1-2.92-5.63-6.5-5.63s-6.5,2.53-6.5,5.63Z"/><path class="cls-2" d="M1614,1016.24h-19V995.13c0-4.76,4.26-8.63,9.5-8.63s9.5,3.87,9.5,8.63Zm-16-3h13V995.13c0-3.1-2.92-5.63-6.5-5.63s-6.5,2.53-6.5,5.63Z"/><path class="cls-2" d="M1643,1016.24h-19V995.13c0-4.76,4.26-8.63,9.5-8.63s9.5,3.87,9.5,8.63Zm-16-3h13V995.13c0-3.1-2.92-5.63-6.5-5.63s-6.5,2.53-6.5,5.63Z"/><path class="cls-2" d="M1672,1016.24h-19V995.13c0-4.76,4.26-8.63,9.5-8.63s9.5,3.87,9.5,8.63Zm-16-3h13V995.13c0-3.1-2.92-5.63-6.5-5.63s-6.5,2.53-6.5,5.63Z"/><path class="cls-2" d="M1701,1016.24h-19V995.13c0-4.76,4.26-8.63,9.5-8.63s9.5,3.87,9.5,8.63Zm-16-3h13V995.13c0-3.1-2.92-5.63-6.5-5.63s-6.5,2.53-6.5,5.63Z"/><path class="cls-2" d="M1730,1016.24h-19V995.13c0-4.76,4.26-8.63,9.5-8.63s9.5,3.87,9.5,8.63Zm-16-3h13V995.13c0-3.1-2.92-5.63-6.5-5.63s-6.5,2.53-6.5,5.63Z"/><path class="cls-2" d="M1527,1051h-19v-21.11c0-4.76,4.26-8.63,9.5-8.63s9.5,3.87,9.5,8.63Zm-16-3h13v-18.11c0-3.1-2.92-5.63-6.5-5.63s-6.5,2.53-6.5,5.63Z"/><path class="cls-2" d="M1556,1051h-19v-21.11c0-4.76,4.26-8.63,9.5-8.63s9.5,3.87,9.5,8.63Zm-16-3h13v-18.11c0-3.1-2.92-5.63-6.5-5.63s-6.5,2.53-6.5,5.63Z"/><path class="cls-2" d="M1585,1051h-19v-21.11c0-4.76,4.26-8.63,9.5-8.63s9.5,3.87,9.5,8.63Zm-16-3h13v-18.11c0-3.1-2.92-5.63-6.5-5.63s-6.5,2.53-6.5,5.63Z"/><path class="cls-2" d="M1614,1051h-19v-21.11c0-4.76,4.26-8.63,9.5-8.63s9.5,3.87,9.5,8.63Zm-16-3h13v-18.11c0-3.1-2.92-5.63-6.5-5.63s-6.5,2.53-6.5,5.63Z"/><path class="cls-2" d="M1643,1051h-19v-21.11c0-4.76,4.26-8.63,9.5-8.63s9.5,3.87,9.5,8.63Zm-16-3h13v-18.11c0-3.1-2.92-5.63-6.5-5.63s-6.5,2.53-6.5,5.63Z"/><path class="cls-2" d="M1672,1051h-19v-21.11c0-4.76,4.26-8.63,9.5-8.63s9.5,3.87,9.5,8.63Zm-16-3h13v-18.11c0-3.1-2.92-5.63-6.5-5.63s-6.5,2.53-6.5,5.63Z"/><path class="cls-2" d="M1701,1051h-19v-21.11c0-4.76,4.26-8.63,9.5-8.63s9.5,3.87,9.5,8.63Zm-16-3h13v-18.11c0-3.1-2.92-5.63-6.5-5.63s-6.5,2.53-6.5,5.63Z"/><path class="cls-2" d="M1730,1051h-19v-21.11c0-4.76,4.26-8.63,9.5-8.63s9.5,3.87,9.5,8.63Zm-16-3h13v-18.11c0-3.1-2.92-5.63-6.5-5.63s-6.5,2.53-6.5,5.63Z"/><path class="cls-2" d="M1758,1016.24h-19V995.13c0-4.76,4.26-8.63,9.5-8.63s9.5,3.87,9.5,8.63Zm-16-3h13V995.13c0-3.1-2.92-5.63-6.5-5.63s-6.5,2.53-6.5,5.63Z"/><path class="cls-2" d="M1787,1016.24h-19V995.13c0-4.76,4.26-8.63,9.5-8.63s9.5,3.87,9.5,8.63Zm-16-3h13V995.13c0-3.1-2.92-5.63-6.5-5.63s-6.5,2.53-6.5,5.63Z"/><path class="cls-2" d="M1816,1016.24h-19V995.13c0-4.76,4.26-8.63,9.5-8.63s9.5,3.87,9.5,8.63Zm-16-3h13V995.13c0-3.1-2.92-5.63-6.5-5.63s-6.5,2.53-6.5,5.63Z"/><path class="cls-2" d="M1845,1016.24h-19V995.13c0-4.76,4.26-8.63,9.5-8.63s9.5,3.87,9.5,8.63Zm-16-3h13V995.13c0-3.1-2.92-5.63-6.5-5.63s-6.5,2.53-6.5,5.63Z"/><path class="cls-2" d="M1874,1016.24h-19V995.13c0-4.76,4.26-8.63,9.5-8.63s9.5,3.87,9.5,8.63Zm-16-3h13V995.13c0-3.1-2.92-5.63-6.5-5.63s-6.5,2.53-6.5,5.63Z"/><path class="cls-2" d="M1758,1051h-19v-21.11c0-4.76,4.26-8.63,9.5-8.63s9.5,3.87,9.5,8.63Zm-16-3h13v-18.11c0-3.1-2.92-5.63-6.5-5.63s-6.5,2.53-6.5,5.63Z"/><path class="cls-2" d="M1787,1051h-19v-21.11c0-4.76,4.26-8.63,9.5-8.63s9.5,3.87,9.5,8.63Zm-16-3h13v-18.11c0-3.1-2.92-5.63-6.5-5.63s-6.5,2.53-6.5,5.63Z"/><path class="cls-2" d="M1816,1051h-19v-21.11c0-4.76,4.26-8.63,9.5-8.63s9.5,3.87,9.5,8.63Zm-16-3h13v-18.11c0-3.1-2.92-5.63-6.5-5.63s-6.5,2.53-6.5,5.63Z"/><path class="cls-2" d="M1845,1051h-19v-21.11c0-4.76,4.26-8.63,9.5-8.63s9.5,3.87,9.5,8.63Zm-16-3h13v-18.11c0-3.1-2.92-5.63-6.5-5.63s-6.5,2.53-6.5,5.63Z"/><path class="cls-2" d="M1874,1051h-19v-21.11c0-4.76,4.26-8.63,9.5-8.63s9.5,3.87,9.5,8.63Zm-16-3h13v-18.11c0-3.1-2.92-5.63-6.5-5.63s-6.5,2.53-6.5,5.63Z"/><path class="cls-2" d="M775,1060H589V995H775Zm-183-3H772V998H592Z"/><rect class="cls-1" x="453.5" y="958.5" width="158" height="100"/><path class="cls-2" d="M613,1060H452V957H613Zm-158-3H610V960H455Z"/><path class="cls-2" d="M760,1047H737.53v-28.27a11.24,11.24,0,0,1,22.47,0Zm-19.47-3H757v-25.27a8.24,8.24,0,0,0-16.47,0Z"/><path class="cls-2" d="M718,1047H695.53v-28.27a11.24,11.24,0,0,1,22.47,0Zm-19.47-3H715v-25.27a8.24,8.24,0,0,0-16.47,0Z"/><path class="cls-2" d="M676,1047H653.53v-28.27a11.24,11.24,0,0,1,22.47,0Zm-19.47-3H673v-25.27a8.24,8.24,0,0,0-16.47,0Z"/><path class="cls-2" d="M561,1059H503V999.5h58Zm-55-3h52v-53.5H506Z"/><path class="cls-2" d="M445,1060H261V957.71l184,32.7Zm-181-3H442V992.92L264,961.29Z"/></g></svg>