<svg xmlns="http://www.w3.org/2000/svg" viewBox="0 0 1920 1080"><defs><style>.cls-1{fill:#fff;stroke:#1cd16e;stroke-miterlimit:10;stroke-width:3px;opacity:0.25;}</style></defs><title>CloudsFar</title><g id="Layer_1" data-name="Layer 1"><path class="cls-1" d="M514.51,746.5c0-.83-.09-1.66-.09-2.5a37.51,37.51,0,0,1,31.65-37,51.48,51.48,0,0,1,71.34-26.78A69,69,0,0,1,736.18,708a38.52,38.52,0,0,1,47.52,17.5c.41,0,.81,0,1.22,0a28.5,28.5,0,0,1,27.49,21Z"/><path class="cls-1" d="M154,867.5c-.07-.94-.11-1.89-.11-2.85a39.25,39.25,0,0,1,27-37.28,46,46,0,0,1,84.79,2.46c1-.09,2.06-.15,3.11-.15a35,35,0,0,1,30.08,17.15,24.26,24.26,0,0,1,23.17,20.67Z"/><path class="cls-1" d="M42.46,610.5a62.49,62.49,0,0,1,120.92-20.62,21.53,21.53,0,0,1,4-.38,54,54,0,0,1,103.86-20.74,41.89,41.89,0,0,1,4.64-.26,42.48,42.48,0,0,1,36.82,21.28,30,30,0,0,1,50.65,20.72Z"/><path class="cls-1" d="M1650.38,785.5a30,30,0,0,1,25.6-17,44.5,44.5,0,0,1,40.94-27h0a52,52,0,0,1,88.9,0h.05a44.51,44.51,0,0,1,41,27.21,31,31,0,0,1,3.49-.21,30,30,0,0,1,27,17Z"/><path class="cls-1" d="M1180,827.5c0-.75.09-1.51.09-2.28a31.3,31.3,0,0,0-21.52-29.73,36.7,36.7,0,0,0-67.63,2c-.82-.07-1.65-.11-2.48-.11a27.89,27.89,0,0,0-24,13.67,19.37,19.37,0,0,0-18.48,16.49Z"/><path class="cls-1" d="M1462.87,746.5c0-.42.05-.84.05-1.26,0-9.47-7.46-17.31-17.21-18.73-4.12-9.61-14.21-16.41-26-16.41a29.65,29.65,0,0,0-12.78,2.87,38.64,38.64,0,0,0-28.27-12c-17.43,0-32.09,11.06-36.29,26a22.4,22.4,0,0,0-7.47-1.28,21.18,21.18,0,0,0-18.36,10.13l-.67,0c-7.14,0-13.15,4.5-14.94,10.62Z"/></g></svg>