<svg xmlns="http://www.w3.org/2000/svg" viewBox="0 0 1920 1080"><defs><style>.cls-1{fill:#fff;stroke:#1cd16e;stroke-miterlimit:10;stroke-width:3px;}</style></defs><title>CloudsClose</title><g id="Layer_1" data-name="Layer 1"><path class="cls-1" d="M1399.41,640.5c0-.83.09-1.66.09-2.5a37.51,37.51,0,0,0-31.65-37,51.49,51.49,0,0,0-71.35-26.78A69,69,0,0,0,1177.74,602a38.53,38.53,0,0,0-47.53,17.5c-.4,0-.8,0-1.21,0a28.52,28.52,0,0,0-27.5,21Z"/><path class="cls-1" d="M1759.89,761.5c.06-.94.11-1.89.11-2.85a39.25,39.25,0,0,0-27-37.28,46,46,0,0,0-84.79,2.46c-1-.09-2.06-.15-3.11-.15A35,35,0,0,0,1615,740.83a24.25,24.25,0,0,0-23.17,20.67Z"/><path class="cls-1" d="M1871.46,504.5a62.49,62.49,0,0,0-120.92-20.62,21.53,21.53,0,0,0-4-.38,54,54,0,0,0-103.87-20.74,41.58,41.58,0,0,0-4.63-.26,42.48,42.48,0,0,0-36.82,21.28,30,30,0,0,0-50.65,20.72Z"/><path class="cls-1" d="M263.54,679.5a30,30,0,0,0-25.6-17,44.5,44.5,0,0,0-40.94-27H197a52,52,0,0,0-88.9,0h0a44.5,44.5,0,0,0-41,27.21,31,31,0,0,0-3.49-.21,30,30,0,0,0-27,17Z"/><path class="cls-1" d="M734,721.5q-.09-1.12-.09-2.28a31.3,31.3,0,0,1,21.52-29.73,36.7,36.7,0,0,1,67.63,2c.82-.07,1.64-.11,2.48-.11a27.87,27.87,0,0,1,24,13.67A19.37,19.37,0,0,1,868,721.5Z"/><path class="cls-1" d="M451.05,640.5c0-.42-.05-.84-.05-1.26,0-9.47,7.46-17.31,17.21-18.73,4.11-9.61,14.2-16.41,26-16.41A29.57,29.57,0,0,1,507,607a38.67,38.67,0,0,1,28.27-12c17.44,0,32.09,11.06,36.3,26a22.36,22.36,0,0,1,7.47-1.28,21.18,21.18,0,0,1,18.36,10.13l.66,0c7.15,0,13.16,4.5,15,10.62Z"/></g></svg>