<svg xmlns="http://www.w3.org/2000/svg" viewBox="0 0 1920 1080"><defs><style>.cls-1,.cls-2{fill:#fff;}.cls-2{stroke:#1cd16e;stroke-miterlimit:10;stroke-width:3px;}</style></defs><title>Road</title><g id="Layer_2" data-name="Layer 2"><rect class="cls-1" x="-8.5" y="1058.5" width="1935" height="31"/></g><g id="Layer_1" data-name="Layer 1"><line class="cls-2" x1="1919.5" y1="1060.5" x2="-0.5" y2="1058.5"/><line class="cls-2" x1="100" y1="1069.5" x2="150" y2="1069.5"/><line class="cls-2" x1="150" y1="1069.5" x2="200" y2="1069.5"/><line class="cls-2" x1="250" y1="1069.5" x2="300" y2="1069.5"/><line class="cls-2" x1="300" y1="1069.5" x2="350" y2="1069.5"/><line class="cls-2" x1="401" y1="1069.5" x2="451" y2="1069.5"/><line class="cls-2" x1="451" y1="1069.5" x2="501" y2="1069.5"/><line class="cls-2" x1="551" y1="1069.5" x2="601" y2="1069.5"/><line class="cls-2" x1="601" y1="1069.5" x2="651" y2="1069.5"/><line class="cls-2" x1="701" y1="1069.5" x2="751" y2="1069.5"/><line class="cls-2" x1="751" y1="1069.5" x2="801" y2="1069.5"/><line class="cls-2" x1="851" y1="1069.5" x2="901" y2="1069.5"/><line class="cls-2" x1="901" y1="1069.5" x2="951" y2="1069.5"/><line class="cls-2" x1="1001" y1="1069.5" x2="1051" y2="1069.5"/><line class="cls-2" x1="1051" y1="1069.5" x2="1101" y2="1069.5"/><line class="cls-2" x1="1151" y1="1069.5" x2="1201" y2="1069.5"/><line class="cls-2" x1="1201" y1="1069.5" x2="1251" y2="1069.5"/><line class="cls-2" x1="1301" y1="1069.5" x2="1351" y2="1069.5"/><line class="cls-2" x1="1351" y1="1069.5" x2="1401" y2="1069.5"/><line class="cls-2" x1="1451" y1="1069.5" x2="1501" y2="1069.5"/><line class="cls-2" x1="1501" y1="1069.5" x2="1551" y2="1069.5"/><line class="cls-2" x1="1601" y1="1069.5" x2="1651" y2="1069.5"/><line class="cls-2" x1="1651" y1="1069.5" x2="1701" y2="1069.5"/><line class="cls-2" x1="1751" y1="1069.5" x2="1801" y2="1069.5"/><line class="cls-2" x1="1801" y1="1069.5" x2="1851" y2="1069.5"/></g></svg>