<svg xmlns="http://www.w3.org/2000/svg" viewBox="0 0 1920 1080"><defs><style>.cls-1,.cls-3{fill:none;}.cls-1,.cls-2,.cls-3{stroke:#1cd16e;stroke-miterlimit:10;}.cls-1,.cls-2{stroke-width:3px;}.cls-2{fill:#fff;}.cls-3{stroke-width:2px;}</style></defs><title>Trees</title><g id="Layer_1" data-name="Layer 1"><line class="cls-1" x1="1884.5" y1="1058" x2="1884.5" y2="1037"/><circle class="cls-2" cx="1884.5" cy="1021.5" r="16"/><polyline class="cls-3" points="1884.5 1036 1884.5 1026 1884.5 1016"/><line class="cls-3" x1="1894.5" y1="1026" x2="1884.5" y2="1031"/><line class="cls-3" x1="1874.5" y1="1026" x2="1884.5" y2="1031"/><line class="cls-1" x1="1765.47" y1="1058" x2="1765.47" y2="1030.4"/><circle class="cls-2" cx="1765.47" cy="1010.03" r="21.03"/><polyline class="cls-3" points="1765.47 1030.09 1765.47 1016.94 1765.47 1003.8"/><line class="cls-3" x1="1778.61" y1="1016.94" x2="1765.47" y2="1023.51"/><line class="cls-3" x1="1752.33" y1="1016.94" x2="1765.47" y2="1023.51"/><line class="cls-1" x1="1569.09" y1="1058" x2="1569.09" y2="1033.6"/><circle class="cls-2" cx="1569.09" cy="1015.59" r="18.59"/><polyline class="cls-3" points="1569.09 1032.44 1569.09 1020.82 1569.09 1009.2"/><line class="cls-3" x1="1580.71" y1="1020.82" x2="1569.09" y2="1026.63"/><line class="cls-3" x1="1557.47" y1="1020.82" x2="1569.09" y2="1026.63"/><line class="cls-1" x1="1260.19" y1="1059" x2="1260.19" y2="1026.6"/><circle class="cls-2" cx="1260.19" cy="1002.69" r="24.69"/><polyline class="cls-3" points="1260.19 1025.06 1260.19 1009.63 1260.19 994.2"/><line class="cls-3" x1="1275.61" y1="1009.63" x2="1260.19" y2="1017.34"/><line class="cls-3" x1="1244.76" y1="1009.63" x2="1260.19" y2="1017.34"/><line class="cls-1" x1="138.5" y1="1057" x2="138.5" y2="1036"/><circle class="cls-2" cx="138.5" cy="1020.5" r="16"/><polyline class="cls-3" points="138.5 1035 138.5 1025 138.5 1015"/><line class="cls-3" x1="128.5" y1="1025" x2="138.5" y2="1030"/><line class="cls-3" x1="148.5" y1="1025" x2="138.5" y2="1030"/><line class="cls-1" x1="257.53" y1="1057" x2="257.53" y2="1029.4"/><circle class="cls-2" cx="257.53" cy="1009.03" r="21.03"/><polyline class="cls-3" points="257.53 1029.09 257.53 1015.94 257.53 1002.8"/><line class="cls-3" x1="244.39" y1="1015.94" x2="257.53" y2="1022.51"/><line class="cls-3" x1="270.67" y1="1015.94" x2="257.53" y2="1022.51"/><line class="cls-1" x1="453.91" y1="1057" x2="453.91" y2="1032.6"/><circle class="cls-2" cx="453.91" cy="1014.59" r="18.59"/><polyline class="cls-3" points="453.91 1031.44 453.91 1019.82 453.91 1008.2"/><line class="cls-3" x1="442.29" y1="1019.82" x2="453.91" y2="1025.63"/><line class="cls-3" x1="465.53" y1="1019.82" x2="453.91" y2="1025.63"/><line class="cls-1" x1="761.06" y1="1058" x2="761.06" y2="1027.9"/><circle class="cls-2" cx="761.06" cy="1005.68" r="22.94"/><polyline class="cls-3" points="761.06 1026.46 761.06 1012.13 761.06 997.79"/><line class="cls-3" x1="746.73" y1="1012.13" x2="761.06" y2="1019.3"/><line class="cls-3" x1="775.4" y1="1012.13" x2="761.06" y2="1019.3"/><line class="cls-1" x1="1006.75" y1="1058" x2="1006.75" y2="1037.98"/><circle class="cls-2" cx="1006.75" cy="1023.21" r="15.25"/><polyline class="cls-3" points="1006.75 1037.03 1006.75 1027.5 1006.75 1017.97"/><line class="cls-3" x1="1016.28" y1="1027.5" x2="1006.75" y2="1032.27"/><line class="cls-3" x1="997.22" y1="1027.5" x2="1006.75" y2="1032.27"/></g></svg>